{"glyphs":{"0":{"ha":579,"x_min":39,"x_max":541,"o":"m 363 395 l 363 576 q 347 838 363 773 q 289 903 330 903 q 231 838 248 903 q 215 576 215 774 l 215 395 q 231 133 215 197 q 289 68 248 68 q 347 133 330 68 q 363 395 363 197 m 289 -17 q 104 113 169 -17 q 39 486 39 243 q 103 858 39 728 q 289 987 168 987 q 475 858 410 987 q 541 486 541 728 q 475 113 541 243 q 289 -17 410 -17 z "},"1":{"ha":579,"x_min":114,"x_max":458,"o":"m 222 823 l 114 823 l 114 895 l 293 971 l 376 971 l 376 182 q 384 118 376 140 q 407 86 391 96 q 429 75 414 81 q 458 37 458 62 l 458 0 l 140 0 l 140 37 q 170 75 140 62 q 192 86 184 81 q 215 118 208 96 q 222 182 222 140 l 222 823 z "},"2":{"ha":579,"x_min":28,"x_max":504,"o":"m 28 0 l 28 96 q 165 355 61 193 q 196 404 186 388 q 304 609 273 528 q 335 761 335 690 q 312 868 335 831 q 248 905 290 905 q 211 898 228 905 q 180 873 195 890 q 208 846 199 863 q 216 806 216 829 q 193 737 216 763 q 132 711 170 711 q 70 737 93 711 q 47 807 47 763 q 111 937 47 886 q 272 987 174 987 q 440 925 376 987 q 504 761 504 863 q 466 611 504 690 q 318 393 427 532 q 287 354 308 380 q 150 147 180 221 l 326 147 q 383 156 360 147 q 415 180 406 164 q 425 206 420 190 q 463 239 435 239 l 504 239 l 504 0 l 28 0 z "},"3":{"ha":579,"x_min":35,"x_max":507,"o":"m 335 532 q 464 435 421 500 q 507 273 507 371 q 433 63 507 144 q 239 -17 359 -17 q 93 28 151 -17 q 35 140 35 73 q 57 211 35 185 q 118 237 80 237 q 179 215 155 237 q 203 158 203 193 q 198 128 203 143 q 183 94 194 113 q 205 72 192 79 q 236 64 219 64 q 313 118 286 64 q 340 272 340 173 q 307 442 340 389 q 197 496 273 495 l 197 572 l 204 572 q 305 615 274 572 q 336 753 336 657 q 316 871 336 835 q 252 907 296 907 q 223 900 237 907 q 195 880 208 894 q 217 853 210 868 q 224 815 224 838 q 201 760 224 782 q 143 737 178 737 q 82 762 105 737 q 60 828 60 787 q 118 942 60 897 q 267 987 176 987 q 428 927 367 987 q 489 765 489 866 q 450 627 489 686 q 335 532 411 568 z "},"4":{"ha":579,"x_min":36,"x_max":545,"o":"m 452 147 q 455 101 452 116 q 466 79 458 86 q 479 69 469 75 q 503 36 503 55 l 503 0 l 252 0 l 252 36 q 273 67 252 54 q 288 79 283 74 q 299 101 296 85 q 302 147 302 116 l 302 239 l 36 239 l 36 338 l 342 971 l 452 971 l 452 338 l 545 338 l 545 239 l 452 239 l 452 147 m 135 338 l 302 338 l 302 685 l 135 338 z "},"5":{"ha":579,"x_min":47,"x_max":528,"o":"m 122 475 l 78 513 l 93 971 l 347 971 q 382 976 368 971 q 404 989 396 980 q 408 996 406 991 q 439 1014 418 1014 l 467 1014 l 460 823 l 189 823 l 180 574 q 235 588 208 583 q 289 593 261 593 q 461 513 395 593 q 528 304 528 433 q 451 71 528 159 q 249 -17 375 -17 q 104 31 161 -17 q 47 150 47 78 q 72 224 47 195 q 134 253 96 253 q 198 229 174 253 q 222 164 222 205 q 214 128 222 145 q 187 96 205 111 q 213 74 199 81 q 249 68 227 68 q 328 118 302 68 q 354 271 354 169 q 321 439 354 387 q 216 492 288 492 q 172 488 196 492 q 122 475 148 484 z "},"6":{"ha":579,"x_min":46,"x_max":533,"o":"m 218 542 q 287 594 254 576 q 351 611 321 611 q 481 535 430 611 q 533 339 533 458 q 462 84 533 185 q 286 -17 391 -17 q 108 100 170 -17 q 46 437 46 217 q 126 843 46 698 q 349 987 206 987 q 465 948 420 987 q 510 847 510 909 q 485 776 510 803 q 419 749 460 749 q 362 771 383 749 q 340 831 340 793 q 344 857 340 844 q 355 884 348 870 q 339 894 347 891 q 321 897 330 897 q 245 830 272 897 q 218 640 218 763 l 218 542 m 220 440 l 220 237 q 236 109 220 149 q 290 69 253 69 q 347 117 331 69 q 363 304 363 165 q 349 458 363 418 q 301 498 336 498 q 258 484 279 498 q 220 440 237 469 z "},"7":{"ha":579,"x_min":77,"x_max":521,"o":"m 521 971 l 521 896 q 385 518 423 668 q 347 231 347 369 q 349 172 347 211 q 350 114 350 134 q 326 16 350 49 q 252 -17 301 -17 q 180 12 205 -17 q 155 94 155 41 q 214 353 155 184 q 407 823 272 523 l 227 823 q 177 814 194 823 q 153 785 161 806 q 148 766 150 777 q 122 743 144 743 l 77 743 l 85 985 q 114 974 97 977 q 163 971 130 971 l 521 971 z "},"8":{"ha":579,"x_min":39,"x_max":534,"o":"m 182 489 q 90 605 118 548 q 61 732 61 662 q 127 916 61 844 q 294 987 193 987 q 443 929 385 987 q 501 779 501 870 q 470 670 501 718 q 367 574 439 622 q 493 431 452 507 q 534 262 534 354 q 463 61 534 138 q 275 -17 391 -17 q 105 51 172 -17 q 39 227 39 119 q 74 363 39 298 q 182 489 110 429 m 232 437 q 175 349 195 400 q 155 236 155 297 q 190 113 155 159 q 281 66 224 66 q 365 103 333 66 q 397 197 397 139 q 361 309 397 255 q 232 437 326 362 m 317 612 q 371 688 353 648 q 389 775 389 729 q 360 867 389 833 q 286 901 332 901 q 220 871 246 901 q 193 793 193 840 q 222 705 193 748 q 317 612 252 663 z "},"9":{"ha":579,"x_min":39,"x_max":526,"o":"m 354 429 q 285 377 318 394 q 221 359 252 359 q 91 436 142 359 q 39 632 39 512 q 110 887 39 786 q 286 987 181 987 q 464 870 402 987 q 526 533 526 753 q 446 129 526 275 q 224 -17 365 -17 q 107 22 153 -17 q 62 123 62 62 q 87 195 62 168 q 153 222 112 222 q 211 200 189 222 q 232 140 232 178 q 229 113 232 126 q 218 86 225 99 q 235 77 227 79 q 253 74 243 74 q 328 141 301 74 q 354 330 354 208 l 354 429 m 353 530 l 353 733 q 336 863 353 825 q 279 901 319 901 q 226 853 241 901 q 211 667 211 804 q 224 512 211 553 q 271 472 237 472 q 314 487 293 472 q 353 530 334 502 z "},"\r":{"ha":0,"x_min":0,"x_max":0,"o":""}," ":{"ha":289,"x_min":0,"x_max":0,"o":""},"!":{"ha":406,"x_min":98,"x_max":306,"o":"m 103 92 q 132 162 103 132 q 201 192 161 192 q 272 163 243 192 q 301 92 301 134 q 272 21 301 51 q 201 -8 242 -8 q 133 22 162 -8 q 103 92 103 52 m 168 277 q 113 797 168 526 q 98 886 98 868 q 127 983 98 947 q 203 1019 156 1019 q 279 983 252 1019 q 306 880 306 946 q 293 802 306 866 q 239 277 240 532 l 168 277 z "},"\"":{"ha":471,"x_min":57,"x_max":415,"o":"m 109 581 l 58 892 q 57 902 58 897 q 57 918 57 908 q 74 972 57 954 q 121 991 90 991 q 169 973 153 991 q 186 918 186 954 q 185 902 186 907 q 184 891 185 896 l 135 581 l 109 581 m 336 581 l 286 891 q 285 902 286 897 q 285 918 285 908 q 302 972 285 953 q 350 991 319 991 q 398 972 380 991 q 415 920 415 954 q 413 895 415 911 q 412 892 412 892 l 363 581 l 336 581 z "},"#":{"ha":1068,"x_min":47,"x_max":1021,"o":"m 624 990 l 518 694 l 700 694 l 806 990 l 929 990 l 823 694 l 1021 694 l 981 582 l 783 582 l 721 404 l 929 404 l 889 290 l 681 290 l 576 -4 l 452 -4 l 557 290 l 375 290 l 271 -4 l 146 -4 l 252 290 l 47 290 l 87 404 l 292 404 l 354 582 l 138 582 l 179 694 l 395 694 l 500 990 l 624 990 m 663 582 l 476 582 l 412 403 l 599 403 l 663 582 z "},"$":{"ha":579,"x_min":35,"x_max":529,"o":"m 252 616 l 252 885 q 191 839 213 871 q 170 764 170 807 q 189 684 170 720 q 252 616 208 649 m 317 386 l 317 85 q 386 142 362 105 q 410 227 410 178 q 388 310 410 272 q 317 386 366 348 m 243 -164 l 243 0 q 92 56 149 5 q 35 182 35 106 q 59 255 35 227 q 119 283 83 283 q 172 261 151 283 q 193 205 193 239 q 184 166 193 183 q 154 129 176 149 q 190 95 168 107 q 243 78 212 82 l 243 439 q 99 566 147 496 q 50 717 50 636 q 103 877 50 809 q 243 964 155 944 l 243 1032 l 321 1032 l 321 968 q 456 915 408 958 q 504 806 504 873 q 484 744 504 768 q 431 721 463 721 q 382 741 401 721 q 363 791 363 761 q 369 824 363 808 q 387 856 375 840 q 355 878 371 869 q 321 888 339 886 l 321 575 q 480 436 432 507 q 529 272 529 365 q 473 98 529 170 q 321 5 418 27 l 321 -164 l 243 -164 z "},"%":{"ha":909,"x_min":22,"x_max":886,"o":"m 606 987 l 689 987 l 304 -16 l 221 -16 l 606 987 m 399 717 q 346 522 399 597 q 211 447 294 447 q 75 522 128 447 q 22 717 22 597 q 75 910 22 836 q 211 985 128 985 q 347 910 294 985 q 399 717 399 836 m 272 675 l 272 760 q 258 875 272 841 q 211 909 244 909 q 163 874 178 909 q 149 760 149 838 l 149 675 q 163 561 149 596 q 211 525 178 525 q 258 559 244 525 q 272 675 272 594 m 886 254 q 833 60 886 135 q 697 -16 780 -16 q 562 59 614 -16 q 510 254 510 134 q 562 448 510 374 q 697 522 614 522 q 833 448 781 522 q 886 254 886 373 m 760 211 l 760 294 q 745 411 760 376 q 699 446 731 446 q 651 410 666 446 q 636 294 636 374 l 636 211 q 651 97 636 132 q 699 61 666 61 q 745 96 731 61 q 760 211 760 130 z "},"&":{"ha":823,"x_min":31,"x_max":803,"o":"m 488 68 q 396 5 446 26 q 286 -16 346 -16 q 103 59 176 -16 q 31 248 31 134 q 80 417 31 338 q 222 557 129 496 q 183 677 196 623 q 171 778 171 732 q 228 953 171 886 q 376 1019 285 1019 q 510 969 460 1019 q 561 838 561 920 q 519 692 561 758 q 392 571 477 626 q 458 431 422 500 q 534 292 494 361 q 571 367 558 330 q 585 432 585 405 q 577 460 585 451 q 552 475 570 470 q 534 479 545 477 q 504 513 504 485 l 504 551 l 787 551 l 787 517 q 784 494 787 503 q 774 480 781 485 q 749 475 774 480 q 708 456 724 471 q 661 356 696 444 q 586 200 625 269 q 663 112 633 136 q 722 87 693 87 q 747 91 733 87 q 779 102 762 95 l 803 40 q 739 -1 777 14 q 660 -16 701 -16 q 564 5 606 -16 q 488 68 522 26 m 359 648 q 432 727 407 680 q 457 829 457 773 q 436 909 457 878 q 382 940 414 940 q 328 916 347 940 q 309 848 309 892 q 321 760 309 810 q 359 648 334 711 m 431 142 q 346 282 386 207 q 258 468 307 357 q 202 407 220 443 q 184 321 184 371 q 229 161 184 226 q 335 96 273 96 q 386 107 362 96 q 431 142 410 119 z "},"'":{"ha":243,"x_min":57,"x_max":186,"o":"m 109 581 l 58 892 q 57 902 58 897 q 57 918 57 908 q 74 972 57 954 q 121 991 90 991 q 169 973 153 991 q 186 918 186 954 q 185 902 186 907 q 184 891 185 896 l 135 581 l 109 581 z "},"(":{"ha":425,"x_min":77,"x_max":404,"o":"m 404 978 q 279 746 322 890 q 236 416 236 602 q 279 87 236 231 q 404 -146 323 -58 l 404 -187 q 161 58 245 -97 q 77 416 77 213 q 160 774 77 620 q 404 1019 244 928 l 404 978 z "},")":{"ha":425,"x_min":21,"x_max":347,"o":"m 21 -146 q 144 87 102 -57 q 187 416 187 231 q 144 746 187 602 q 21 978 102 890 l 21 1019 q 264 775 180 929 q 347 416 347 621 q 264 58 347 212 q 21 -187 180 -97 l 21 -146 z "},"*":{"ha":599,"x_min":39,"x_max":558,"o":"m 309 715 l 309 711 q 336 592 309 655 q 364 511 364 528 q 346 465 364 482 q 298 447 328 447 q 250 464 268 447 q 232 511 232 481 q 260 591 232 530 q 288 707 288 652 l 287 716 q 273 706 283 713 q 196 632 224 671 q 189 623 194 629 q 102 554 140 554 q 59 577 79 554 q 39 628 39 601 q 60 672 39 654 q 113 692 81 690 q 129 693 118 692 q 277 734 225 700 q 131 774 216 770 q 118 775 123 774 q 61 796 83 778 q 39 840 39 814 q 59 890 39 868 q 103 913 79 913 q 190 845 143 913 q 196 836 194 839 q 237 788 216 808 q 289 751 259 768 l 289 755 q 261 875 289 811 q 233 956 233 939 q 252 1002 233 984 q 300 1019 270 1019 q 348 1002 330 1019 q 366 956 366 985 q 338 876 366 937 q 310 760 310 814 l 310 750 q 324 760 314 753 q 401 835 373 795 q 408 844 404 838 q 496 913 457 913 q 538 889 519 913 q 558 839 558 866 q 536 795 558 814 q 485 774 515 776 q 469 772 479 773 q 321 732 371 766 q 456 693 375 699 q 476 692 469 692 q 538 671 517 688 q 558 623 558 654 q 538 576 558 597 q 494 554 518 554 q 412 619 454 554 q 403 632 406 627 q 364 677 385 658 q 309 715 342 696 z "},"+":{"ha":1157,"x_min":172,"x_max":985,"o":"m 636 828 l 636 471 l 985 471 l 985 358 l 636 358 l 636 0 l 521 0 l 521 358 l 172 358 l 172 471 l 521 471 l 521 828 l 636 828 z "},",":{"ha":289,"x_min":28,"x_max":244,"o":"m 28 -186 q 104 -90 77 -136 q 134 -1 132 -43 q 68 27 91 4 q 46 90 46 51 q 71 163 46 136 q 136 191 95 191 q 216 158 187 191 q 244 66 244 125 q 200 -65 244 11 q 74 -225 156 -140 l 28 -186 z "},"-":{"ha":335,"x_min":32,"x_max":302,"o":"m 32 231 l 32 366 l 302 366 l 302 231 l 32 231 z "},".":{"ha":289,"x_min":45,"x_max":243,"o":"m 45 92 q 74 162 45 132 q 143 192 102 192 q 214 163 184 192 q 243 92 243 134 q 213 21 243 51 q 143 -8 184 -8 q 74 22 104 -8 q 45 92 45 52 z "},"/":{"ha":293,"x_min":-16,"x_max":282,"o":"m -16 -129 l 186 1019 l 282 1019 l 79 -129 l -16 -129 z "},":":{"ha":321,"x_min":61,"x_max":260,"o":"m 61 92 q 90 162 61 132 q 160 192 119 192 q 231 163 201 192 q 260 92 260 134 q 230 21 260 51 q 160 -8 200 -8 q 91 22 121 -8 q 61 92 61 52 m 61 488 q 90 557 61 528 q 160 586 119 586 q 231 557 201 586 q 260 488 260 529 q 230 417 260 447 q 160 387 200 387 q 91 417 121 387 q 61 488 61 448 z "},";":{"ha":321,"x_min":43,"x_max":260,"o":"m 61 488 q 90 557 61 528 q 160 586 119 586 q 231 557 201 586 q 260 488 260 529 q 230 417 260 447 q 160 387 200 387 q 91 417 121 387 q 61 488 61 448 m 43 -186 q 121 -89 94 -136 q 151 -1 148 -43 q 84 27 107 4 q 61 90 61 51 q 86 163 61 136 q 153 191 112 191 q 232 158 203 191 q 260 66 260 125 q 216 -65 260 11 q 89 -225 172 -140 l 43 -186 z "},"<":{"ha":1157,"x_min":179,"x_max":978,"o":"m 978 672 l 345 414 l 978 155 l 978 32 l 179 359 l 179 468 l 978 798 l 978 672 z "},"=":{"ha":1157,"x_min":172,"x_max":985,"o":"m 985 611 l 985 497 l 172 497 l 172 611 l 985 611 m 985 330 l 985 218 l 172 218 l 172 330 l 985 330 z "},">":{"ha":1157,"x_min":179,"x_max":978,"o":"m 978 468 l 978 359 l 179 32 l 179 155 l 812 414 l 179 672 l 179 798 l 978 468 z "},"?":{"ha":494,"x_min":29,"x_max":431,"o":"m 115 92 q 144 162 115 132 q 214 192 174 192 q 285 163 256 192 q 314 92 314 134 q 284 21 314 51 q 214 -8 254 -8 q 145 22 175 -8 q 115 92 115 52 m 182 267 q 181 290 181 278 q 180 328 180 302 q 187 441 180 386 q 205 551 193 497 q 226 627 212 577 q 262 828 262 758 q 245 905 262 879 q 195 932 228 932 q 176 928 184 932 q 161 917 168 925 q 185 889 178 903 q 192 848 192 875 q 170 792 192 813 q 111 771 148 771 q 52 795 75 771 q 29 860 29 819 q 85 975 29 930 q 231 1019 141 1019 q 376 965 322 1019 q 431 818 431 910 q 352 604 431 730 q 325 559 334 574 q 266 421 284 490 q 248 275 248 353 l 248 267 l 182 267 z "},"@":{"ha":1369,"x_min":94,"x_max":1278,"o":"m 847 524 q 822 613 847 580 q 754 647 796 647 q 675 616 711 647 q 603 517 639 586 q 544 375 564 444 q 524 249 524 305 q 548 159 524 193 q 612 125 573 125 q 691 153 654 125 q 764 243 727 181 q 824 385 802 308 q 847 524 847 463 m 885 558 l 920 673 l 1036 673 l 920 256 l 918 252 q 908 191 908 212 q 923 139 908 157 q 964 121 938 121 q 1021 136 987 121 q 1083 174 1055 151 q 1198 324 1158 233 q 1238 525 1238 415 q 1108 830 1238 714 q 766 946 979 946 q 544 902 649 946 q 358 777 438 858 q 234 583 275 692 q 192 340 192 473 q 232 133 192 224 q 354 -26 273 41 q 522 -118 426 -86 q 726 -150 617 -150 q 944 -115 839 -150 q 1150 -8 1049 -80 l 1175 -40 q 962 -154 1075 -115 q 726 -192 848 -192 q 491 -160 599 -192 q 304 -69 383 -129 q 148 119 202 7 q 94 364 94 230 q 153 623 94 502 q 322 835 211 743 q 524 949 414 910 q 758 987 634 987 q 1136 860 994 987 q 1278 519 1278 732 q 1238 318 1278 412 q 1124 157 1198 224 q 1036 101 1082 120 q 946 82 991 82 q 843 118 880 82 q 802 221 806 153 q 708 117 758 150 q 596 83 659 83 q 452 146 505 83 q 399 314 399 208 q 432 463 399 390 q 528 595 465 535 q 628 662 574 639 q 737 685 682 685 q 836 653 798 685 q 885 558 873 621 z "},"A":{"ha":694,"x_min":-18,"x_max":713,"o":"m 186 241 l 164 165 q 158 141 160 152 q 155 123 155 131 q 162 98 155 108 q 184 77 168 87 q 191 73 186 75 q 210 41 210 62 l 210 0 l -18 0 l -18 41 q 5 73 -18 60 q 20 82 15 79 q 66 165 48 102 q 73 188 70 180 l 257 804 l 241 856 q 238 871 239 863 q 237 888 237 879 q 273 936 237 899 q 300 965 290 954 q 321 991 309 975 q 350 1018 343 1018 q 359 1008 355 1018 l 359 1007 l 621 187 q 628 162 624 178 q 673 82 645 101 q 687 74 678 79 q 713 41 713 59 l 713 0 l 410 0 l 410 41 q 432 77 410 62 q 454 106 454 92 q 452 126 454 114 q 446 155 450 139 l 424 241 l 186 241 m 214 340 l 393 340 l 300 648 l 214 340 z "},"B":{"ha":714,"x_min":56,"x_max":675,"o":"m 285 90 q 300 89 292 90 q 323 89 308 89 q 451 133 412 89 q 490 273 490 176 q 445 413 490 366 q 311 460 399 460 q 298 459 307 460 q 285 458 289 458 l 285 90 m 56 0 l 56 36 q 81 77 56 60 q 97 89 92 84 q 112 117 108 97 q 117 187 117 136 l 117 815 q 112 885 117 865 q 97 916 108 905 q 84 926 92 920 q 62 966 62 943 l 62 1003 l 260 1003 q 546 944 458 1003 q 633 754 633 885 q 588 606 633 667 q 450 511 542 545 q 618 421 562 483 q 675 262 675 359 q 656 157 675 205 q 600 75 637 110 q 494 17 556 34 q 297 0 432 0 l 56 0 m 285 549 q 297 548 290 548 q 317 547 304 547 q 424 590 391 547 q 457 730 457 633 q 418 868 457 821 q 304 914 380 914 q 295 913 302 914 q 285 913 288 913 l 285 549 z "},"C":{"ha":656,"x_min":37,"x_max":648,"o":"m 648 178 q 532 30 597 77 q 378 -17 467 -17 q 131 120 225 -17 q 37 482 37 256 q 135 869 37 718 q 378 1019 232 1019 q 478 995 429 1019 q 530 970 528 970 q 548 977 537 970 q 572 985 559 985 l 608 985 l 608 733 l 572 733 q 526 779 538 733 q 518 806 522 795 q 465 899 497 869 q 386 929 433 929 q 263 831 302 929 q 224 524 224 732 q 271 201 224 310 q 410 93 317 93 q 503 125 463 93 q 574 224 543 157 l 648 178 z "},"D":{"ha":766,"x_min":56,"x_max":728,"o":"m 56 0 l 56 36 q 81 77 56 60 q 97 89 92 84 q 112 117 108 97 q 117 187 117 136 l 117 815 q 112 885 117 865 q 97 916 108 905 q 84 926 92 920 q 62 966 62 943 l 62 1003 l 273 1003 q 434 990 378 1003 q 538 947 491 977 q 680 774 631 887 q 728 501 728 661 q 619 123 728 246 q 286 0 511 0 l 56 0 m 285 913 l 285 90 l 339 90 q 497 178 452 90 q 543 501 543 265 q 497 825 543 737 q 339 913 452 913 l 285 913 z "},"E":{"ha":663,"x_min":56,"x_max":625,"o":"m 56 0 l 56 36 q 81 77 56 60 q 97 89 92 84 q 112 117 108 97 q 117 187 117 136 l 117 815 q 112 885 117 865 q 97 916 108 905 q 84 926 92 920 q 62 966 62 943 l 62 1003 l 414 1003 q 510 1007 469 1003 q 585 1019 551 1011 l 585 790 l 542 790 q 498 827 511 790 q 479 867 489 852 q 438 903 461 893 q 349 913 416 913 l 285 913 l 285 559 l 326 559 q 379 569 361 559 q 408 603 397 578 q 414 618 411 609 q 452 644 422 644 l 482 644 l 482 385 l 452 385 q 414 410 422 385 q 408 427 411 420 q 380 460 398 450 q 326 469 362 469 l 285 469 l 285 90 l 347 90 q 461 102 429 90 q 515 146 493 115 q 539 208 528 165 q 571 250 550 250 l 625 250 l 625 0 l 56 0 z "},"F":{"ha":616,"x_min":56,"x_max":604,"o":"m 285 187 q 289 117 285 136 q 304 89 294 97 q 321 77 310 84 q 346 36 346 60 l 346 0 l 56 0 l 56 36 q 81 77 56 60 q 97 89 92 84 q 112 117 108 97 q 117 187 117 136 l 117 815 q 112 885 117 865 q 97 916 108 905 q 84 926 92 920 q 62 966 62 943 l 62 1003 l 414 1003 q 512 1007 465 1003 q 604 1019 559 1011 l 604 775 l 562 775 q 518 817 531 775 q 498 863 509 846 q 460 902 481 892 q 387 913 440 913 l 370 913 l 285 913 l 285 559 l 347 559 q 399 569 382 559 q 428 603 416 578 q 433 617 430 608 q 472 644 443 644 l 503 644 l 503 385 l 472 385 q 433 412 443 385 q 428 426 430 421 q 400 460 417 450 q 347 469 382 469 l 285 469 l 285 187 z "},"G":{"ha":733,"x_min":35,"x_max":700,"o":"m 441 421 l 672 421 q 661 354 665 382 q 657 302 657 326 l 657 203 q 662 144 657 165 q 677 112 666 123 q 688 104 680 109 q 700 83 700 98 l 700 50 q 557 0 628 17 q 416 -17 486 -17 q 137 107 240 -17 q 35 444 35 231 q 78 715 35 591 q 204 926 122 839 q 299 996 249 973 q 404 1019 349 1019 q 508 995 458 1019 q 559 970 557 970 q 577 977 566 970 q 600 985 587 985 l 637 985 l 637 733 l 600 733 q 555 777 567 733 q 547 806 551 795 q 493 900 526 871 q 410 929 460 929 q 270 803 317 929 q 222 431 222 677 q 265 159 222 246 q 397 72 307 72 q 490 112 461 72 q 518 240 518 151 q 509 306 518 285 q 472 340 499 326 q 447 359 452 351 q 441 385 442 367 l 441 421 z "},"H":{"ha":819,"x_min":56,"x_max":764,"o":"m 285 187 q 289 117 285 136 q 304 89 294 97 q 321 77 310 84 q 346 36 346 60 l 346 0 l 56 0 l 56 36 q 81 77 56 60 q 97 89 92 84 q 112 117 108 97 q 117 187 117 136 l 117 815 q 112 885 117 865 q 97 916 108 905 q 84 926 92 920 q 62 966 62 943 l 62 1003 l 339 1003 l 339 966 q 317 926 339 943 q 304 916 309 920 q 289 885 294 905 q 285 815 285 865 l 285 570 l 534 570 l 534 815 q 530 885 534 865 q 515 916 526 905 q 502 926 511 920 q 481 966 481 943 l 481 1003 l 757 1003 l 757 966 q 736 926 757 943 q 722 916 727 920 q 707 885 711 905 q 703 815 703 865 l 703 187 q 707 117 703 136 q 722 89 711 97 q 739 77 728 84 q 764 36 764 60 l 764 0 l 473 0 l 473 36 q 498 77 473 60 q 515 89 509 84 q 530 117 526 97 q 534 187 534 136 l 534 469 l 285 469 l 285 187 z "},"I":{"ha":408,"x_min":58,"x_max":350,"o":"m 288 187 q 292 117 288 136 q 307 89 296 97 q 324 77 313 84 q 350 36 350 60 l 350 0 l 58 0 l 58 36 q 84 77 58 60 q 101 89 96 84 q 116 117 112 97 q 121 187 121 136 l 121 815 q 116 882 121 861 q 100 916 111 904 q 87 926 96 920 q 65 966 65 943 l 65 1003 l 343 1003 l 343 966 q 321 926 343 943 q 307 916 311 920 q 292 885 296 905 q 288 815 288 865 l 288 187 z "},"J":{"ha":524,"x_min":-16,"x_max":464,"o":"m 240 815 q 235 885 240 865 q 218 916 230 905 q 203 926 212 920 q 179 966 179 943 l 179 1003 l 464 1003 l 464 966 q 442 926 464 943 q 429 916 434 920 q 414 885 418 905 q 410 815 410 865 l 410 298 q 350 61 410 140 q 170 -17 291 -17 q 34 20 83 -17 q -16 121 -16 57 q 9 192 -16 163 q 69 220 33 220 q 134 196 109 220 q 158 136 158 173 q 156 116 158 129 q 154 98 154 104 q 163 78 154 86 q 186 71 172 71 q 228 102 216 71 q 240 218 240 134 l 240 815 z "},"K":{"ha":736,"x_min":56,"x_max":768,"o":"m 275 485 l 275 187 q 279 117 275 136 q 294 89 283 97 q 311 77 300 84 q 336 36 336 60 l 336 0 l 56 0 l 56 36 q 81 77 56 60 q 97 89 92 84 q 112 117 108 97 q 117 187 117 136 l 117 815 q 112 885 117 865 q 97 916 108 905 q 84 926 92 920 q 62 966 62 943 l 62 1003 l 329 1003 l 329 966 q 308 926 329 943 q 294 916 299 920 q 280 885 284 905 q 275 815 275 865 l 275 596 l 471 867 q 480 884 477 877 q 484 899 484 892 q 460 925 484 911 q 437 961 437 939 l 437 1003 l 707 1003 l 707 964 q 699 935 707 944 q 663 918 692 926 q 620 898 637 911 q 578 852 602 884 l 395 608 l 640 184 q 648 172 643 180 q 734 82 677 117 q 738 80 736 81 q 768 36 768 61 l 768 0 l 437 0 l 437 41 q 462 79 437 64 q 486 110 486 94 q 483 127 486 117 q 472 147 479 136 l 275 485 z "},"L":{"ha":633,"x_min":56,"x_max":612,"o":"m 285 90 l 335 90 q 449 102 416 90 q 503 146 481 115 q 527 207 515 164 q 559 250 538 250 l 612 250 l 612 0 l 56 0 l 56 36 q 81 77 56 60 q 97 89 92 84 q 112 117 108 97 q 117 187 117 136 l 117 815 q 112 885 117 865 q 97 916 108 905 q 84 926 92 920 q 62 966 62 943 l 62 1003 l 339 1003 l 339 966 q 317 926 339 943 q 304 916 309 920 q 289 885 294 905 q 285 815 285 865 l 285 90 z "},"M":{"ha":943,"x_min":53,"x_max":885,"o":"m 208 872 l 208 187 q 213 119 208 140 q 229 89 218 98 q 245 77 235 84 q 271 36 271 60 l 271 0 l 53 0 l 53 36 q 78 77 53 60 q 94 89 89 84 q 110 117 105 97 q 114 187 114 136 l 114 815 q 110 885 114 865 q 94 916 105 905 q 81 926 90 920 q 60 966 60 943 l 60 1003 l 330 1003 l 468 390 l 611 1003 l 878 1003 l 878 966 q 857 926 878 943 q 843 916 848 920 q 827 882 832 904 q 822 815 822 861 l 822 187 q 826 117 822 136 q 842 89 831 97 q 859 77 848 83 q 885 36 885 60 l 885 0 l 610 0 l 610 36 q 635 77 610 60 q 651 89 646 84 q 666 117 662 97 q 671 187 671 136 l 671 872 l 463 0 l 415 0 l 208 872 z "},"N":{"ha":758,"x_min":49,"x_max":701,"o":"m 551 401 l 551 815 q 547 882 551 861 q 530 916 542 904 q 517 926 526 920 q 496 966 496 943 l 496 1003 l 701 1003 l 701 966 q 679 926 701 943 q 665 915 671 920 q 650 885 654 905 q 646 815 646 865 l 646 0 l 558 0 l 212 755 l 212 187 q 217 117 212 136 q 232 89 221 97 q 248 77 238 84 q 273 36 273 60 l 273 0 l 56 0 l 56 36 q 81 77 56 60 q 97 89 92 84 q 112 117 108 97 q 117 187 117 136 l 117 815 q 111 886 117 867 q 93 916 106 905 q 74 928 86 921 q 49 966 49 943 l 49 1003 l 275 1003 l 551 401 z "},"O":{"ha":758,"x_min":39,"x_max":721,"o":"m 379 -17 q 131 123 224 -17 q 39 501 39 263 q 131 880 39 740 q 379 1019 224 1019 q 628 880 534 1019 q 721 501 721 740 q 628 123 721 263 q 379 -17 534 -17 m 379 74 q 498 166 464 74 q 533 501 533 258 q 498 838 533 747 q 379 929 464 929 q 260 837 294 929 q 225 501 225 745 q 260 166 225 258 q 379 74 294 74 z "},"P":{"ha":668,"x_min":56,"x_max":646,"o":"m 285 187 q 289 117 285 136 q 304 89 294 97 q 321 77 310 84 q 346 36 346 60 l 346 0 l 56 0 l 56 36 q 81 77 56 60 q 97 89 92 84 q 112 117 108 97 q 117 187 117 136 l 117 815 q 112 885 117 865 q 97 916 108 905 q 84 926 92 920 q 62 966 62 943 l 62 1003 l 292 1003 q 420 997 378 1003 q 496 975 463 990 q 605 880 564 946 q 646 733 646 813 q 563 526 646 598 q 323 454 479 454 q 299 455 308 454 q 285 455 291 455 l 285 187 m 285 546 q 297 545 290 545 q 317 545 304 545 q 430 589 394 545 q 465 730 465 633 q 425 870 465 823 q 306 917 385 917 q 295 916 302 917 q 285 916 288 916 l 285 546 z "},"Q":{"ha":758,"x_min":39,"x_max":745,"o":"m 379 74 q 498 166 464 74 q 533 501 533 258 q 498 838 533 747 q 379 929 464 929 q 260 837 294 929 q 225 501 225 745 q 260 166 225 258 q 379 74 294 74 m 461 -7 q 584 -51 511 -16 q 697 -86 658 -86 q 712 -85 703 -86 q 737 -81 720 -84 l 745 -129 q 677 -171 714 -157 q 597 -184 640 -184 q 524 -173 557 -184 q 446 -129 490 -161 q 389 -78 430 -117 q 317 -20 347 -38 q 279 0 306 -14 q 154 93 192 45 q 68 268 97 165 q 39 501 39 371 q 131 880 39 740 q 379 1019 224 1019 q 628 880 534 1019 q 721 501 721 740 q 653 168 721 300 q 461 -7 586 37 z "},"R":{"ha":717,"x_min":56,"x_max":734,"o":"m 279 546 q 293 545 286 545 q 313 545 300 545 q 429 589 393 545 q 465 730 465 633 q 425 870 465 823 q 302 917 384 917 q 292 916 300 917 q 279 916 283 916 l 279 546 m 279 463 l 279 187 q 284 119 279 140 q 300 89 289 98 q 317 77 306 84 q 342 36 342 60 l 342 0 l 56 0 l 56 36 q 81 77 56 60 q 97 89 92 84 q 112 117 108 97 q 117 187 117 136 l 117 815 q 112 885 117 865 q 97 916 108 905 q 84 926 92 920 q 62 966 62 943 l 62 1003 l 285 1003 q 436 996 389 1003 q 515 971 482 988 q 615 877 581 937 q 648 734 648 817 q 596 575 648 636 q 439 486 545 513 q 512 445 483 475 q 571 342 541 415 l 639 178 l 641 173 q 690 89 671 101 q 705 80 696 85 q 734 36 734 62 l 734 0 l 528 0 l 357 399 q 353 406 356 401 q 283 463 328 463 l 279 463 z "},"S":{"ha":624,"x_min":66,"x_max":582,"o":"m 69 -9 l 69 301 l 102 301 q 152 253 142 301 q 165 205 158 224 q 228 105 193 136 q 317 74 263 74 q 404 114 372 74 q 436 225 436 155 q 408 328 436 282 q 302 433 380 374 q 265 462 290 443 q 127 582 170 532 q 82 663 97 619 q 66 757 66 706 q 134 944 66 869 q 301 1019 201 1019 q 370 1007 332 1019 q 416 994 408 994 q 444 1003 427 994 q 468 1011 461 1011 l 501 1011 l 501 757 l 472 757 q 426 801 440 757 q 416 829 420 819 q 370 905 397 881 q 304 929 343 929 q 236 899 262 929 q 210 821 210 869 q 235 737 210 775 q 338 639 260 699 q 378 608 351 629 q 511 494 469 539 q 564 404 546 456 q 582 286 582 351 q 507 71 582 159 q 329 -17 433 -17 q 227 1 281 -17 q 167 20 173 20 q 135 5 154 20 q 109 -9 116 -9 l 69 -9 z "},"T":{"ha":656,"x_min":21,"x_max":635,"o":"m 635 790 l 593 790 q 549 831 565 790 q 539 857 543 847 q 506 900 526 886 q 454 913 486 913 l 411 913 l 411 187 q 415 117 411 136 q 431 89 420 97 q 448 77 437 84 q 473 36 473 60 l 473 0 l 182 0 l 182 36 q 207 77 182 60 q 224 89 218 84 q 239 119 235 98 q 244 187 244 140 l 244 913 l 201 913 q 150 900 170 913 q 117 857 130 886 q 106 831 113 848 q 62 790 90 790 l 21 790 l 21 1019 q 79 1007 50 1011 q 138 1003 109 1003 l 518 1003 q 576 1007 547 1003 q 635 1019 606 1011 l 635 790 z "},"U":{"ha":781,"x_min":57,"x_max":728,"o":"m 572 815 q 568 885 572 865 q 553 916 564 905 q 540 926 548 920 q 518 966 518 943 l 518 1003 l 728 1003 l 728 966 q 705 926 728 943 q 691 915 697 920 q 676 885 681 905 q 672 815 672 865 l 672 338 q 601 70 672 157 q 382 -17 530 -17 q 255 8 311 -17 q 165 81 200 33 q 125 172 137 120 q 113 345 113 224 l 113 815 q 108 885 113 865 q 94 915 104 905 q 79 926 87 920 q 57 966 57 943 l 57 1003 l 335 1003 l 335 966 q 313 926 335 943 q 300 916 304 920 q 284 882 289 904 q 279 815 279 861 l 279 349 q 310 146 279 200 q 418 92 341 92 q 537 154 502 92 q 572 376 572 217 l 572 815 z "},"V":{"ha":672,"x_min":-16,"x_max":686,"o":"m 300 -8 l 50 872 l 50 874 q 12 924 39 910 q -11 942 -5 933 q -16 966 -16 950 l -16 1003 l 277 1003 l 277 966 q 252 924 277 941 q 227 892 227 907 q 228 870 227 882 q 233 846 230 859 l 366 315 l 511 846 q 516 869 515 857 q 518 892 518 881 q 494 924 518 907 q 469 966 469 941 l 469 1003 l 686 1003 l 686 966 q 681 941 686 950 q 659 924 675 932 q 634 905 642 914 q 621 872 627 895 l 372 -8 l 300 -8 z "},"W":{"ha":932,"x_min":0,"x_max":930,"o":"m 467 595 l 328 -8 l 268 -8 l 87 815 q 66 883 78 858 q 39 918 54 908 q 26 925 35 921 q 0 966 0 938 l 0 1003 l 278 1003 l 278 966 q 253 924 278 941 q 228 892 228 907 q 230 872 228 883 q 235 846 231 861 l 338 355 l 429 754 l 404 857 q 388 899 398 884 q 358 924 377 914 q 337 940 342 932 q 332 966 332 949 l 332 1003 l 604 1003 l 604 966 q 579 924 604 941 q 554 892 554 907 q 559 860 554 883 q 561 846 560 851 l 657 355 l 761 846 q 764 864 763 854 q 765 885 765 873 q 740 925 765 907 q 715 966 715 943 l 715 1003 l 930 1003 l 930 966 q 925 941 930 949 q 904 924 920 932 q 879 903 886 913 q 867 872 871 892 l 652 -8 l 591 -8 l 467 595 z "},"X":{"ha":692,"x_min":17,"x_max":704,"o":"m 612 139 q 638 101 624 115 q 672 78 652 86 q 698 61 692 70 q 704 36 704 53 l 704 0 l 408 0 l 408 36 q 426 74 408 58 q 444 104 444 91 q 442 120 444 111 q 435 138 439 128 l 323 376 l 218 151 q 211 131 214 142 q 208 113 208 120 q 231 78 208 94 q 254 36 254 61 l 254 0 l 17 0 l 17 36 q 23 61 17 53 q 49 78 28 70 q 80 98 67 85 q 102 129 92 110 l 271 484 l 90 864 l 90 865 q 43 925 69 911 q 21 942 26 935 q 17 966 17 949 l 17 1003 l 294 1003 l 294 966 q 276 929 294 945 q 258 900 258 913 q 267 873 258 892 q 269 865 269 867 l 359 659 l 447 851 q 456 876 452 863 q 460 895 460 888 q 436 925 460 909 q 412 966 412 942 l 412 1003 l 635 1003 l 635 966 q 630 942 635 949 q 608 925 626 935 q 586 907 595 918 q 566 873 576 897 l 412 553 l 612 139 z "},"Y":{"ha":599,"x_min":-20,"x_max":611,"o":"m 389 489 l 389 187 q 393 117 389 136 q 408 89 397 97 q 425 77 414 84 q 450 36 450 60 l 450 0 l 160 0 l 160 36 q 185 77 160 60 q 201 89 195 84 q 217 117 212 97 q 221 187 221 136 l 221 472 l 56 854 q 52 864 54 857 q 7 925 33 909 q -15 944 -11 936 q -20 966 -20 952 l -20 1003 l 272 1003 l 272 966 q 247 924 272 945 q 222 880 222 903 q 225 860 222 870 q 232 839 227 850 l 338 597 l 436 846 q 444 867 441 859 q 446 882 446 876 q 420 924 446 905 q 395 966 395 943 l 395 1003 l 611 1003 l 611 966 q 583 922 611 944 q 543 872 555 901 l 389 489 z "},"Z":{"ha":589,"x_min":21,"x_max":555,"o":"m 21 0 l 21 78 l 367 913 l 311 913 q 218 901 250 913 q 167 863 186 890 q 149 825 158 851 q 109 786 137 787 l 104 786 l 64 786 l 64 1019 q 120 1007 90 1010 q 197 1003 149 1003 l 218 1003 l 555 1003 l 555 949 l 197 90 l 283 90 q 391 106 353 90 q 454 161 429 122 q 473 204 464 176 q 515 244 488 244 l 555 244 l 555 0 l 21 0 z "},"[":{"ha":425,"x_min":132,"x_max":406,"o":"m 268 -106 l 406 -106 l 406 -171 l 132 -171 l 132 1003 l 406 1003 l 406 939 l 268 939 l 268 -106 z "},"\\":{"ha":293,"x_min":11,"x_max":309,"o":"m 309 -129 l 214 -129 l 11 1019 l 106 1019 l 309 -129 z "},"]":{"ha":425,"x_min":18,"x_max":292,"o":"m 155 937 l 18 937 l 18 1003 l 292 1003 l 292 -170 l 18 -170 l 18 -107 l 155 -107 l 155 937 z "},"^":{"ha":1389,"x_min":279,"x_max":1107,"o":"m 766 991 l 1107 608 l 1036 608 l 693 878 l 350 608 l 279 608 l 621 991 l 766 991 z "},"_":{"ha":694,"x_min":0,"x_max":694,"o":"m 694 -211 l 694 -328 l 0 -328 l 0 -211 l 694 -211 z "},"`":{"ha":694,"x_min":142,"x_max":479,"o":"m 294 861 l 479 671 l 418 671 l 205 782 q 155 818 168 802 q 142 856 142 833 q 159 900 142 883 q 203 917 176 917 q 244 904 223 917 q 294 861 266 891 z "},"a":{"ha":521,"x_min":29,"x_max":522,"o":"m 322 60 q 264 3 300 22 q 180 -16 228 -16 q 71 30 113 -16 q 29 151 29 76 q 98 303 29 248 q 297 364 167 357 l 293 416 q 275 500 289 481 q 228 518 260 518 q 214 516 221 518 q 200 511 206 514 q 201 507 201 509 q 205 490 205 495 q 186 423 205 446 q 129 400 167 400 q 77 421 98 400 q 57 475 57 442 q 105 561 57 527 q 231 595 153 595 q 385 541 334 595 q 439 374 436 486 l 444 153 q 444 151 444 152 q 486 69 446 70 q 493 72 490 70 q 501 76 497 73 l 522 22 q 476 -6 503 4 q 422 -17 450 -17 q 362 1 385 -17 q 322 60 339 18 m 302 286 q 207 248 241 282 q 174 153 174 213 q 189 97 174 117 q 232 77 205 77 q 286 107 268 77 q 304 197 304 137 l 304 210 l 302 286 z "},"b":{"ha":543,"x_min":16,"x_max":507,"o":"m 90 -12 l 57 0 l 57 852 q 54 900 57 885 q 46 920 52 914 q 35 931 42 925 q 16 964 16 946 l 16 1003 l 204 1003 l 204 538 q 257 575 227 562 q 319 589 286 589 q 454 505 401 589 q 507 288 507 422 q 451 68 507 149 q 301 -12 395 -12 q 217 2 253 -12 q 151 46 180 16 l 90 -12 m 204 464 l 204 109 q 230 89 216 96 q 260 82 244 82 q 323 132 302 82 q 345 286 345 182 q 323 440 345 390 q 260 490 302 490 q 231 484 245 490 q 204 464 218 477 z "},"c":{"ha":467,"x_min":32,"x_max":461,"o":"m 461 86 q 372 10 425 37 q 258 -17 319 -17 q 93 60 154 -17 q 32 271 32 138 q 100 507 32 419 q 285 595 169 595 q 392 563 351 595 q 433 484 433 532 q 412 421 433 444 q 355 399 391 399 q 305 420 323 399 q 286 479 286 441 q 288 497 286 488 q 292 518 289 507 q 288 519 290 518 q 275 521 278 521 q 213 468 233 521 q 192 309 192 414 q 219 142 192 197 q 302 87 247 87 q 358 101 332 87 q 412 146 384 115 l 461 86 z "},"d":{"ha":566,"x_min":36,"x_max":526,"o":"m 338 852 q 334 899 338 883 q 323 921 331 914 q 307 932 319 925 q 283 964 283 945 l 283 1000 l 486 1003 l 486 147 q 489 102 486 118 q 497 79 492 87 q 508 69 500 75 q 526 36 526 54 l 526 0 l 338 -7 l 338 32 q 285 -3 310 8 q 232 -14 260 -14 q 90 67 143 -14 q 36 282 36 147 q 88 505 36 420 q 224 589 140 589 q 287 576 258 589 q 338 538 316 563 l 338 852 m 338 113 l 338 464 q 312 483 325 477 q 285 489 299 489 q 219 439 241 489 q 197 288 197 390 q 219 136 197 185 q 285 86 241 86 q 311 93 298 86 q 338 113 324 99 z "},"e":{"ha":492,"x_min":32,"x_max":460,"o":"m 460 117 q 373 18 424 52 q 262 -17 321 -17 q 93 64 155 -17 q 32 289 32 145 q 93 512 32 429 q 256 595 153 595 q 404 516 349 595 q 458 304 458 438 l 458 290 l 192 290 q 191 277 191 284 q 191 258 191 270 q 217 130 191 175 q 294 85 244 85 q 348 104 321 85 q 404 163 375 123 l 460 117 m 191 371 l 317 371 q 302 488 315 456 q 256 521 288 521 q 211 490 225 521 q 191 371 196 458 z "},"f":{"ha":340,"x_min":25,"x_max":395,"o":"m 232 498 l 232 147 q 235 102 232 117 q 245 79 238 87 q 262 67 251 74 q 285 36 285 53 l 285 0 l 43 0 l 43 36 q 62 69 43 54 q 73 79 70 75 q 82 101 80 87 q 85 147 85 115 l 85 498 l 25 498 l 25 545 q 48 582 25 570 q 63 591 57 587 q 80 613 75 599 q 89 657 86 627 q 153 917 102 830 q 293 1003 203 1003 q 367 978 339 1003 q 395 909 395 952 q 377 860 395 878 q 329 842 359 842 q 287 859 302 842 q 271 905 271 876 q 272 916 271 909 q 275 929 273 922 q 242 898 252 928 q 232 804 232 868 l 232 579 l 355 579 l 355 498 l 232 498 z "},"g":{"ha":511,"x_min":31,"x_max":532,"o":"m 199 178 l 165 104 q 177 105 169 104 q 231 107 214 107 q 412 63 348 107 q 476 -60 476 20 q 413 -194 476 -146 q 235 -241 350 -241 q 94 -213 144 -241 q 43 -135 43 -185 q 63 -84 43 -104 q 117 -64 84 -64 q 166 -82 149 -64 q 184 -132 184 -100 q 184 -147 184 -142 q 182 -157 183 -152 q 214 -166 197 -163 q 252 -170 231 -170 q 329 -152 301 -170 q 357 -102 357 -134 q 310 -45 357 -62 q 158 -28 264 -28 q 102 -29 130 -28 q 74 -31 74 -31 q 40 -26 49 -31 q 31 -9 31 -21 q 37 12 31 -3 q 40 18 39 16 l 131 210 q 74 279 94 235 q 54 379 54 323 q 109 534 54 473 q 249 595 164 595 q 327 581 293 595 q 387 539 361 567 q 434 583 415 571 q 473 595 452 595 q 515 577 499 595 q 532 533 532 560 q 517 494 532 510 q 481 478 502 478 q 445 495 460 478 q 429 513 430 513 q 422 510 425 513 q 417 500 419 507 q 443 440 434 475 q 452 358 452 404 q 397 220 452 273 q 256 167 342 167 q 231 170 245 167 q 199 178 216 172 m 254 237 q 297 268 285 237 q 310 379 310 299 q 297 490 310 459 q 254 521 284 521 q 211 490 224 521 q 199 379 199 459 q 211 269 199 300 q 254 237 224 237 z "},"h":{"ha":574,"x_min":39,"x_max":536,"o":"m 228 443 l 228 147 q 231 102 228 118 q 239 79 233 87 q 250 69 242 75 q 269 36 269 54 l 269 0 l 39 0 l 39 36 q 57 69 39 54 q 68 79 65 76 q 77 100 74 86 q 79 147 79 115 l 79 852 q 77 900 79 885 q 68 920 74 914 q 58 930 65 924 q 39 964 39 946 l 39 1000 l 228 1003 l 228 525 q 290 576 258 560 q 358 591 321 591 q 462 548 429 591 q 494 408 494 504 l 494 147 q 497 103 494 119 q 506 79 500 87 q 517 69 509 75 q 536 36 536 54 l 536 0 l 306 0 l 306 36 q 323 69 306 54 q 334 79 332 76 q 344 102 341 87 q 347 147 347 118 l 347 396 q 336 470 347 452 q 294 488 324 488 q 259 476 276 488 q 228 443 241 465 z "},"i":{"ha":313,"x_min":43,"x_max":273,"o":"m 54 876 q 82 943 54 916 q 149 971 109 971 q 216 944 189 971 q 243 876 243 916 q 215 809 243 837 q 149 781 187 781 q 82 809 111 781 q 54 876 54 838 m 232 147 q 235 103 232 119 q 243 79 237 87 q 254 69 247 75 q 273 36 273 54 l 273 0 l 43 0 l 43 36 q 62 69 43 54 q 73 79 70 75 q 82 101 80 87 q 85 147 85 115 l 85 432 q 82 477 85 464 q 73 499 80 491 q 62 509 71 502 q 43 543 43 525 l 43 579 l 232 582 l 232 147 z "},"j":{"ha":289,"x_min":-94,"x_max":240,"o":"m 50 876 q 78 943 50 915 q 146 971 106 971 q 213 944 185 971 q 240 876 240 916 q 212 809 240 837 q 146 781 184 781 q 79 809 107 781 q 50 876 50 838 m 229 64 q 174 -162 229 -83 q 17 -241 119 -241 q -64 -216 -33 -241 q -94 -147 -94 -190 q -76 -97 -94 -115 q -26 -78 -58 -78 q 19 -96 3 -78 q 36 -144 36 -114 q 36 -158 36 -153 q 35 -165 35 -162 q 70 -137 60 -165 q 81 -37 81 -109 l 81 432 q 77 479 81 464 q 66 500 74 494 q 45 511 59 505 q 18 543 18 525 l 18 579 l 229 582 l 229 64 z "},"k":{"ha":581,"x_min":39,"x_max":586,"o":"m 79 852 q 77 900 79 885 q 68 920 74 914 q 58 930 65 924 q 39 964 39 946 l 39 1000 l 228 1003 l 228 326 l 340 457 q 355 476 350 468 q 359 492 359 485 q 340 512 359 503 q 321 536 321 521 l 321 579 l 554 579 l 554 547 q 548 524 554 532 q 527 511 541 515 q 515 509 522 510 q 443 467 471 498 l 376 389 l 514 122 q 558 70 530 90 q 586 36 586 50 l 586 0 l 329 0 l 329 37 q 347 65 329 54 q 366 86 366 77 q 363 93 366 87 q 357 109 361 98 l 275 282 l 228 225 l 228 147 q 231 102 228 118 q 239 79 233 87 q 250 69 242 75 q 269 36 269 54 l 269 0 l 39 0 l 39 36 q 57 69 39 54 q 68 79 65 76 q 77 100 74 86 q 79 147 79 115 l 79 852 z "},"l":{"ha":307,"x_min":39,"x_max":269,"o":"m 79 852 q 77 900 79 885 q 68 920 74 914 q 58 930 65 924 q 39 964 39 946 l 39 1000 l 228 1003 l 228 147 q 231 102 228 118 q 239 79 233 87 q 250 69 242 75 q 269 36 269 54 l 269 0 l 39 0 l 39 36 q 57 69 39 54 q 68 79 65 76 q 77 100 74 86 q 79 147 79 115 l 79 852 z "},"m":{"ha":839,"x_min":43,"x_max":802,"o":"m 227 443 l 227 147 q 229 102 227 118 q 237 79 232 87 q 248 69 241 75 q 267 36 267 54 l 267 0 l 43 0 l 43 36 q 62 69 43 54 q 73 79 70 75 q 82 101 80 87 q 85 147 85 115 l 85 432 q 82 477 85 464 q 73 499 80 491 q 62 509 71 502 q 43 543 43 525 l 43 579 l 227 582 l 227 518 q 292 574 260 556 q 357 591 323 591 q 439 567 406 591 q 482 501 473 543 q 549 569 513 546 q 625 591 585 591 q 727 547 695 591 q 760 408 760 503 l 760 147 q 762 103 760 119 q 771 79 765 87 q 783 69 774 75 q 802 36 802 54 l 802 0 l 578 0 l 578 36 q 596 69 578 54 q 607 79 604 75 q 615 100 613 86 q 618 147 618 114 l 618 396 q 606 470 618 452 q 561 489 593 489 q 525 477 543 489 q 493 443 507 465 l 493 147 q 496 103 493 119 q 505 79 498 87 q 515 69 507 76 q 533 36 533 54 l 533 0 l 310 0 l 310 36 q 329 69 310 54 q 340 79 337 75 q 349 100 347 87 q 351 147 351 114 l 351 396 q 339 470 351 452 q 294 489 327 489 q 258 477 277 489 q 227 443 240 465 z "},"n":{"ha":579,"x_min":43,"x_max":541,"o":"m 232 443 l 232 147 q 235 103 232 119 q 243 79 237 87 q 254 69 247 75 q 273 36 273 54 l 273 0 l 43 0 l 43 36 q 62 69 43 54 q 73 79 70 75 q 82 101 80 87 q 85 147 85 115 l 85 432 q 82 477 85 464 q 73 499 80 491 q 62 509 71 502 q 43 543 43 525 l 43 579 l 232 582 l 232 522 q 292 574 259 557 q 364 591 324 591 q 466 547 434 591 q 498 408 498 503 l 498 147 q 501 103 498 119 q 510 79 504 87 q 522 69 513 75 q 541 36 541 54 l 541 0 l 310 0 l 310 36 q 329 69 310 54 q 340 79 337 75 q 349 100 347 87 q 351 147 351 114 l 351 396 q 340 470 351 452 q 298 488 329 488 q 263 476 281 488 q 232 443 245 465 z "},"o":{"ha":511,"x_min":32,"x_max":479,"o":"m 256 595 q 419 512 358 595 q 479 289 479 429 q 419 65 479 148 q 256 -17 359 -17 q 93 66 153 -17 q 32 289 32 149 q 93 512 32 429 q 256 595 153 595 m 256 521 q 207 478 220 521 q 193 289 193 435 q 207 99 193 140 q 256 58 220 58 q 305 99 292 58 q 318 289 318 140 q 305 481 318 441 q 256 521 292 521 z "},"p":{"ha":566,"x_min":39,"x_max":529,"o":"m 228 -94 q 230 -139 228 -123 q 239 -162 233 -154 q 250 -172 242 -166 q 268 -205 268 -187 l 268 -241 l 39 -241 l 39 -205 q 58 -172 39 -187 q 68 -163 64 -166 q 77 -141 74 -156 q 79 -94 79 -127 l 79 432 q 77 478 79 464 q 68 499 74 492 q 58 508 64 503 q 39 543 39 525 l 39 579 l 221 582 l 221 532 q 277 574 247 560 q 342 589 308 589 q 477 506 425 589 q 529 288 529 422 q 475 67 529 148 q 330 -14 422 -14 q 281 -5 305 -14 q 228 21 256 3 l 228 -94 m 228 464 l 228 113 q 254 93 240 99 q 282 86 267 86 q 347 136 326 86 q 368 288 368 186 q 347 439 368 389 q 282 489 326 489 q 254 483 267 489 q 228 464 241 477 z "},"q":{"ha":543,"x_min":32,"x_max":524,"o":"m 335 21 q 282 -5 307 3 q 232 -14 257 -14 q 87 66 142 -14 q 32 277 32 145 q 93 505 32 420 q 257 589 154 589 q 323 576 291 589 q 393 536 355 564 l 464 586 l 482 578 l 482 -94 q 485 -139 482 -123 q 493 -163 487 -154 q 505 -173 497 -167 q 524 -205 524 -188 l 524 -241 l 293 -241 l 293 -205 q 312 -173 293 -188 q 323 -163 319 -167 q 332 -141 330 -155 q 335 -94 335 -127 l 335 21 m 335 113 l 335 473 q 308 491 321 486 q 281 497 294 497 q 216 446 237 497 q 195 292 195 395 q 216 137 195 188 q 281 86 237 86 q 309 93 296 86 q 335 113 323 99 z "},"r":{"ha":431,"x_min":43,"x_max":431,"o":"m 212 456 q 276 564 245 532 q 347 595 307 595 q 408 572 386 595 q 431 509 431 549 q 410 448 431 471 q 355 425 389 425 q 323 433 339 425 q 289 457 307 440 q 246 368 260 422 q 232 232 232 313 l 232 147 q 235 103 232 119 q 245 79 239 86 q 260 69 250 75 q 282 36 282 55 l 282 0 l 43 0 l 43 36 q 62 69 43 54 q 73 79 70 75 q 82 101 80 87 q 85 147 85 115 l 85 432 q 82 477 85 464 q 73 499 80 491 q 62 509 71 502 q 43 543 43 525 l 43 579 l 212 582 l 212 456 z "},"s":{"ha":411,"x_min":24,"x_max":385,"o":"m 155 74 q 178 61 166 65 q 201 57 189 57 q 250 74 229 57 q 271 113 271 91 q 187 216 271 156 l 183 218 q 64 325 90 286 q 39 418 39 365 q 87 546 39 496 q 212 595 136 595 q 318 562 276 595 q 359 481 359 529 q 340 431 359 450 q 290 412 321 412 q 247 429 262 412 q 231 473 231 445 q 233 492 231 482 q 241 513 236 501 q 219 520 228 518 q 203 522 210 522 q 162 508 178 522 q 147 471 147 494 q 216 390 147 437 q 239 374 231 379 q 357 266 329 309 q 385 170 385 224 q 329 36 385 90 q 189 -17 273 -17 q 71 21 118 -17 q 24 115 24 60 q 44 173 24 151 q 98 195 65 195 q 149 175 130 195 q 168 125 168 156 q 165 101 168 114 q 155 74 162 89 z "},"t":{"ha":354,"x_min":31,"x_max":355,"o":"m 227 498 l 227 184 q 237 109 227 129 q 275 89 248 89 q 299 93 286 89 q 325 106 311 97 l 355 39 q 280 -3 319 12 q 201 -17 241 -17 q 105 24 133 -17 q 78 183 78 64 l 78 498 l 31 498 l 31 538 q 57 578 31 566 q 71 586 66 583 q 83 608 79 592 q 87 647 87 624 l 87 732 q 100 797 87 779 q 144 814 113 814 l 227 814 l 227 579 l 328 579 l 328 498 l 227 498 z "},"u":{"ha":574,"x_min":39,"x_max":536,"o":"m 347 136 l 347 432 q 344 476 347 460 q 334 499 341 491 q 324 508 331 503 q 306 543 306 525 l 306 579 l 494 583 l 494 147 q 497 103 494 119 q 506 79 500 87 q 517 69 509 75 q 536 36 536 54 l 536 0 l 347 -3 l 347 57 q 288 5 320 22 q 215 -12 255 -12 q 112 32 144 -12 q 79 171 79 75 l 79 432 q 77 478 79 464 q 68 499 74 492 q 58 508 64 503 q 39 543 39 525 l 39 579 l 228 583 l 228 182 q 238 109 228 127 q 277 90 249 90 q 315 102 296 90 q 347 136 333 114 z "},"v":{"ha":467,"x_min":-12,"x_max":479,"o":"m 204 -8 l 52 454 q 50 458 51 456 q 18 506 39 492 q 10 510 15 507 q -12 543 -12 523 l -12 579 l 240 579 l 240 543 q 220 509 240 526 q 200 479 200 493 q 200 471 200 474 q 201 467 201 469 l 268 249 l 336 467 q 337 472 337 469 q 338 479 338 474 q 317 509 338 493 q 297 543 297 526 l 297 579 l 479 579 l 479 543 q 454 509 479 522 q 448 505 450 507 q 417 460 429 494 q 415 454 416 456 l 261 -8 l 204 -8 z "},"w":{"ha":733,"x_min":-12,"x_max":746,"o":"m 204 -8 l 52 454 q 50 458 51 456 q 18 506 39 492 q 10 510 15 507 q -12 543 -12 523 l -12 579 l 235 579 l 235 543 q 215 509 235 526 q 195 479 195 493 q 195 471 195 474 q 196 467 195 469 l 265 237 l 368 579 l 427 579 l 534 249 l 603 467 q 604 472 604 469 q 604 479 604 474 q 584 509 604 493 q 564 543 564 526 l 564 579 l 746 579 l 746 543 q 721 509 746 522 q 715 505 717 507 q 684 460 695 494 q 682 454 682 456 l 528 -8 l 476 -8 l 367 321 l 261 -8 l 204 -8 z "},"x":{"ha":469,"x_min":-5,"x_max":486,"o":"m 71 453 q 26 505 55 481 q -3 543 -3 529 l -3 579 l 243 579 l 243 543 q 225 512 243 528 q 208 486 208 496 q 210 480 208 484 q 212 474 211 476 l 260 389 l 303 467 q 308 478 306 472 q 310 489 310 485 q 290 511 310 497 q 271 543 271 525 l 271 579 l 454 579 l 454 543 q 421 505 454 524 q 368 454 387 485 l 292 330 l 412 126 q 458 74 429 98 q 486 36 486 50 l 486 0 l 241 0 l 241 36 q 257 67 241 52 q 273 93 273 81 q 273 100 273 96 q 271 106 272 103 l 207 215 l 146 111 q 140 99 142 103 q 139 90 139 94 q 158 68 139 82 q 178 36 178 54 l 178 0 l -5 0 l -5 36 q 27 73 -5 54 q 79 123 59 92 l 174 272 l 71 453 z "},"y":{"ha":472,"x_min":-12,"x_max":486,"o":"m 267 3 q 175 -194 215 -146 q 77 -241 135 -241 q 12 -221 35 -241 q -12 -164 -12 -200 q 8 -108 -12 -130 q 58 -86 28 -86 q 96 -96 79 -86 q 122 -126 112 -106 q 139 -107 132 -119 q 151 -78 146 -96 l 187 32 l 58 454 q 58 457 58 456 q 25 505 46 494 q 19 509 23 507 q -7 543 -7 522 l -7 579 l 248 579 l 248 543 q 227 509 248 526 q 207 479 207 493 q 207 472 207 474 q 208 467 208 469 l 273 249 l 342 467 q 343 472 342 469 q 343 479 343 474 q 324 509 343 493 q 304 543 304 526 l 304 579 l 486 579 l 486 543 q 461 509 486 522 q 454 505 456 507 q 424 463 434 494 q 420 454 422 457 l 267 3 z "},"z":{"ha":463,"x_min":21,"x_max":431,"o":"m 21 0 l 21 62 l 245 504 l 215 504 q 147 495 168 504 q 113 460 126 486 q 104 436 109 452 q 71 408 98 408 l 36 408 l 36 579 l 422 579 l 422 542 l 191 81 l 216 81 q 304 93 277 81 q 350 136 332 105 q 361 164 355 145 q 397 200 372 200 l 431 200 l 431 0 l 21 0 z "},"{":{"ha":694,"x_min":121,"x_max":576,"o":"m 576 989 q 457 952 490 988 q 425 810 425 916 l 425 717 q 387 508 425 564 q 245 431 349 452 q 387 353 349 409 q 425 144 425 297 l 425 52 q 457 -90 425 -55 q 576 -127 489 -125 l 576 -165 l 570 -165 q 362 -115 419 -165 q 306 69 306 -65 l 306 205 q 267 357 306 315 q 121 408 227 399 l 121 454 q 267 506 229 465 q 306 657 306 547 l 306 793 q 363 978 306 928 q 576 1028 420 1028 l 576 989 z "},"|":{"ha":694,"x_min":288,"x_max":408,"o":"m 408 1061 l 408 -328 l 288 -328 l 288 1061 l 408 1061 z "},"}":{"ha":694,"x_min":118,"x_max":575,"o":"m 390 793 l 390 657 q 429 506 390 547 q 575 454 467 465 l 575 408 q 429 358 469 399 q 390 205 390 316 l 390 69 q 333 -115 390 -64 q 125 -165 276 -165 l 118 -165 l 118 -127 q 237 -90 205 -125 q 269 52 269 -55 l 269 144 q 308 354 269 298 q 449 431 346 409 q 308 508 347 452 q 269 717 269 563 l 269 810 q 237 952 269 916 q 118 989 205 988 l 118 1028 l 125 1028 q 333 978 276 1028 q 390 793 390 927 z "},"~":{"ha":1157,"x_min":121,"x_max":1038,"o":"m 1038 407 q 904 335 968 359 q 779 311 840 311 q 716 317 749 311 q 650 335 684 323 q 598 353 633 340 q 382 403 454 403 q 264 377 326 403 q 121 294 201 351 l 121 421 q 258 494 193 470 q 383 518 323 518 q 468 510 425 518 q 583 477 511 502 q 611 467 591 475 q 781 428 722 428 q 901 453 838 428 q 1038 532 963 478 l 1038 407 z "}," ":{"ha":579,"x_min":0,"x_max":0,"o":""},"¡":{"ha":406,"x_min":98,"x_max":306,"o":"m 237 726 q 293 200 239 469 q 306 123 306 138 q 278 21 306 58 q 203 -17 250 -17 q 127 19 155 -17 q 98 117 98 55 q 113 206 98 135 q 167 726 167 478 l 237 726 m 302 911 q 273 841 302 871 q 203 811 243 811 q 132 840 161 811 q 103 911 103 869 q 133 982 103 952 q 203 1011 162 1011 q 272 981 242 1011 q 302 911 302 951 z "},"¢":{"ha":579,"x_min":71,"x_max":500,"o":"m 500 103 q 410 27 463 53 q 292 1 357 1 l 286 1 l 239 -174 l 170 -174 l 218 11 q 109 110 147 37 q 71 290 71 182 q 140 524 71 437 q 323 611 209 611 q 342 610 332 611 q 372 606 352 609 l 411 758 l 482 758 l 433 575 q 463 542 454 561 q 472 494 472 522 q 451 438 472 459 q 397 416 431 416 l 392 416 l 311 104 q 330 101 322 102 q 345 100 338 100 q 396 115 371 100 q 450 163 422 130 l 500 103 m 332 452 q 327 471 328 462 q 325 492 325 481 q 326 509 325 498 q 329 534 327 519 q 323 536 327 535 q 310 538 313 538 q 240 484 264 538 q 216 323 216 429 q 227 211 216 258 q 254 146 237 163 l 332 452 z "},"£":{"ha":579,"x_min":-7,"x_max":576,"o":"m 212 69 q 154 16 184 34 q 94 -3 124 -3 q 21 25 48 -3 q -7 98 -7 52 q 27 185 -7 151 q 113 220 60 220 q 143 216 126 220 q 176 207 159 213 q 177 212 176 208 q 179 252 179 239 q 170 342 179 290 q 142 460 160 395 l 16 460 l 16 541 l 123 541 q 109 627 114 587 q 104 699 104 666 q 173 909 104 831 q 355 987 241 987 q 480 947 432 987 q 529 844 529 907 q 509 780 529 804 q 454 755 488 755 q 402 775 422 755 q 383 827 383 794 q 391 858 383 844 q 412 878 399 871 q 385 897 401 890 q 347 903 368 903 q 280 874 304 903 q 256 796 256 846 q 274 680 256 770 q 300 541 292 590 l 439 541 l 439 460 l 310 460 q 313 425 312 441 q 314 392 314 408 q 302 278 314 332 q 268 179 291 224 q 374 131 334 146 q 431 115 413 115 q 486 142 463 115 q 524 229 508 170 l 576 210 q 516 41 561 99 q 403 -17 472 -17 q 317 4 363 -17 q 212 69 271 25 m 160 114 q 127 134 142 127 q 102 140 113 140 q 71 130 81 140 q 60 100 60 119 q 71 70 60 81 q 100 58 81 58 q 133 72 118 58 q 160 114 147 85 z "},"¤":{"ha":579,"x_min":29,"x_max":581,"o":"m 29 559 l 41 628 l 117 628 q 197 898 135 808 q 367 987 260 987 q 448 962 409 987 q 489 937 488 937 q 503 945 494 937 q 521 953 511 953 l 549 953 l 549 701 l 518 701 q 484 745 493 701 q 476 774 479 762 q 436 875 458 847 q 379 903 414 903 q 313 839 335 903 q 286 628 292 775 l 481 628 l 468 559 l 285 559 l 285 437 l 444 437 l 432 370 l 286 370 q 317 155 292 217 q 396 93 342 93 q 468 123 437 93 q 519 215 498 154 l 581 178 q 563 132 578 166 q 530 75 547 98 q 458 6 497 28 q 372 -17 418 -17 q 198 86 267 -17 q 114 370 129 189 l 29 370 l 41 437 l 110 437 l 110 465 q 111 506 110 484 q 113 559 111 527 l 29 559 z "},"¥":{"ha":579,"x_min":-11,"x_max":586,"o":"m 370 460 l 571 460 l 571 392 l 370 392 l 370 182 q 374 114 370 133 q 387 87 378 96 q 404 76 393 83 q 429 36 429 59 l 429 0 l 164 0 l 164 36 q 190 77 164 60 q 205 87 200 83 q 221 114 216 96 q 225 182 225 133 l 225 392 l 22 392 l 22 460 l 225 460 l 165 582 l 22 582 l 22 650 l 139 650 l 61 827 q 58 834 60 829 q 14 895 39 878 q -7 912 -3 905 q -11 935 -11 920 l -11 971 l 256 971 l 256 935 q 231 894 256 913 q 207 857 207 874 q 210 835 207 847 q 216 811 212 823 l 322 566 l 416 819 q 423 839 421 830 q 425 854 425 847 q 399 895 425 877 q 374 935 374 912 l 374 971 l 586 971 l 586 935 q 559 892 586 913 q 521 844 532 872 l 444 650 l 571 650 l 571 582 l 419 582 l 370 460 z "},"¦":{"ha":694,"x_min":288,"x_max":408,"o":"m 408 971 l 408 457 l 288 457 l 288 971 l 408 971 m 408 277 l 408 -237 l 288 -237 l 288 277 l 408 277 z "},"§":{"ha":599,"x_min":32,"x_max":564,"o":"m 396 235 q 473 144 448 191 q 498 43 498 96 q 438 -87 498 -37 q 278 -138 377 -138 q 142 -99 193 -138 q 92 4 92 -60 q 111 62 92 41 q 165 83 131 83 q 216 67 198 83 q 235 20 235 50 q 221 -21 235 -1 q 207 -46 207 -41 q 224 -68 207 -59 q 269 -77 242 -77 q 347 -56 321 -77 q 372 5 372 -35 q 348 75 372 39 q 262 165 324 111 l 151 265 q 62 372 92 319 q 32 478 32 425 q 76 587 32 544 q 199 642 120 630 q 124 731 149 686 q 100 823 100 777 q 158 965 100 910 q 310 1019 216 1019 q 435 979 386 1019 q 484 875 484 938 q 463 815 484 836 q 406 794 443 794 q 358 812 375 794 q 340 860 340 829 q 354 900 340 880 q 368 928 368 920 q 352 948 368 939 q 311 957 335 957 q 248 935 271 957 q 225 873 225 913 q 248 804 225 840 q 335 710 271 768 l 446 608 q 534 501 505 555 q 564 396 564 448 q 519 283 564 326 q 396 235 475 241 m 436 355 q 416 418 436 382 q 359 494 397 454 q 282 564 316 542 q 222 586 249 586 q 176 568 195 586 q 158 521 158 549 q 177 459 158 494 q 235 382 197 425 q 310 314 275 337 q 371 292 344 292 q 418 310 400 292 q 436 355 436 328 z "},"¨":{"ha":694,"x_min":142,"x_max":551,"o":"m 224 863 q 281 839 257 863 q 304 782 304 815 q 282 722 304 745 q 224 699 259 699 q 165 723 189 699 q 142 782 142 747 q 166 839 142 814 q 224 863 191 863 m 471 863 q 528 839 504 863 q 551 782 551 815 q 529 722 551 745 q 471 699 506 699 q 412 723 436 699 q 389 782 389 747 q 413 839 389 814 q 471 863 437 863 z "},"©":{"ha":1141,"x_min":82,"x_max":1060,"o":"m 572 950 q 757 912 667 950 q 916 807 847 875 q 1022 647 984 738 q 1060 460 1060 557 q 1022 274 1060 363 q 916 114 985 184 q 759 8 847 45 q 571 -28 671 -28 q 385 8 473 -28 q 227 114 297 44 q 119 273 156 184 q 82 460 82 361 q 119 646 82 557 q 225 806 155 735 q 385 912 294 875 q 572 950 475 950 m 993 460 q 960 624 993 544 q 868 762 928 703 q 732 853 810 821 q 572 885 655 885 q 409 852 487 885 q 272 760 331 820 q 180 622 212 699 q 149 460 149 545 q 181 297 149 374 q 273 160 213 220 q 410 67 335 98 q 571 36 485 36 q 733 68 656 36 q 868 160 809 100 q 960 299 928 220 q 993 460 993 377 m 790 746 l 791 529 l 760 529 q 690 667 738 620 q 574 714 643 714 q 454 650 495 714 q 414 464 414 587 q 458 273 414 339 q 586 207 502 207 q 688 236 642 207 q 774 325 735 266 l 803 307 q 701 198 760 234 q 566 163 642 163 q 364 247 446 163 q 282 454 282 331 q 363 664 282 579 q 564 749 444 749 q 668 726 618 749 q 721 704 718 704 q 749 713 740 704 q 762 746 758 723 l 790 746 z "},"ª":{"ha":390,"x_min":22,"x_max":392,"o":"m 241 640 q 198 601 225 614 q 136 587 171 587 q 54 620 85 587 q 22 704 22 652 q 74 810 22 772 q 224 852 125 848 l 220 890 q 206 948 217 935 q 171 961 195 961 q 160 960 165 961 q 150 957 155 959 q 153 948 153 951 q 154 942 154 945 q 140 895 154 911 q 97 879 125 879 q 58 893 73 879 q 43 930 43 908 q 79 991 43 968 q 174 1015 115 1015 q 289 977 251 1015 q 329 860 327 939 l 334 705 q 334 703 334 705 q 366 647 336 647 q 371 649 368 647 q 376 653 374 650 l 392 614 q 358 594 378 602 q 317 587 338 587 q 272 600 289 587 q 241 640 254 612 m 228 798 q 156 771 181 795 q 131 705 131 747 q 142 667 131 682 q 174 653 154 653 q 214 674 201 653 q 228 736 228 694 l 228 746 l 228 798 z "},"«":{"ha":559,"x_min":32,"x_max":513,"o":"m 195 289 q 259 155 237 209 q 281 78 281 100 q 277 68 280 71 q 268 65 275 66 q 183 145 255 65 q 32 289 111 226 q 183 434 111 353 q 267 514 255 514 q 277 511 274 514 q 281 501 280 509 q 258 423 281 478 q 195 289 236 368 m 425 289 q 491 153 469 206 q 513 78 513 100 q 508 68 512 71 q 498 65 505 65 q 414 145 486 65 q 264 289 343 225 q 415 434 344 353 q 497 514 486 514 q 509 511 505 514 q 513 501 513 508 q 491 426 513 479 q 425 289 469 372 z "},"¬":{"ha":1157,"x_min":172,"x_max":985,"o":"m 985 585 l 985 244 l 872 244 l 872 472 l 172 472 l 172 585 l 985 585 z "},"­":{"ha":335,"x_min":32,"x_max":302,"o":"m 32 231 l 32 366 l 302 366 l 302 231 l 32 231 z "},"®":{"ha":1141,"x_min":82,"x_max":1060,"o":"m 572 950 q 762 911 670 950 q 921 803 853 873 q 1024 643 987 734 q 1060 454 1060 553 q 1020 270 1060 361 q 907 107 979 178 q 752 6 838 39 q 561 -28 666 -28 q 382 9 469 -28 q 227 114 294 46 q 119 273 155 184 q 82 460 82 361 q 119 646 82 557 q 225 806 156 736 q 385 912 294 875 q 572 950 475 950 m 993 460 q 960 623 993 543 q 868 762 927 703 q 732 853 810 821 q 572 885 655 885 q 409 852 487 885 q 272 760 331 820 q 180 622 212 699 q 149 460 149 545 q 181 297 149 374 q 273 160 213 220 q 410 67 335 98 q 571 36 485 36 q 733 68 656 36 q 868 160 809 100 q 961 299 928 221 q 993 460 993 376 m 587 743 q 745 706 686 743 q 804 610 804 669 q 760 519 804 553 q 612 468 715 486 q 712 418 677 451 q 760 332 747 386 q 766 287 764 316 q 803 225 772 225 q 833 248 823 225 q 843 315 843 271 l 876 315 l 876 300 q 847 212 876 242 q 761 182 818 182 q 707 192 730 182 q 671 221 684 201 q 652 297 654 248 q 647 360 650 346 q 606 434 636 410 q 524 458 576 458 l 507 458 l 507 292 q 523 244 507 258 q 581 227 538 231 l 581 195 l 317 195 l 317 226 q 377 242 360 229 q 393 292 393 256 l 393 644 q 377 693 393 680 q 317 710 361 707 l 317 743 l 587 743 m 507 665 l 507 490 q 526 489 517 490 q 543 489 534 489 q 648 519 611 489 q 685 604 685 549 q 653 682 685 652 q 571 711 622 711 q 523 700 539 711 q 507 665 507 688 z "},"¯":{"ha":694,"x_min":179,"x_max":515,"o":"m 179 831 l 515 831 l 515 730 l 179 730 l 179 831 z "},"°":{"ha":457,"x_min":29,"x_max":429,"o":"m 229 990 q 371 931 313 990 q 429 789 429 872 q 370 648 429 707 q 228 589 311 589 q 87 647 144 589 q 29 789 29 705 q 87 932 29 873 q 229 990 146 990 m 354 790 q 318 879 354 842 q 229 916 281 916 q 140 879 177 916 q 103 790 103 842 q 140 701 103 739 q 229 664 177 664 q 318 701 281 664 q 354 790 354 738 z "},"±":{"ha":1157,"x_min":172,"x_max":985,"o":"m 636 818 l 636 591 l 985 591 l 985 479 l 636 479 l 636 253 l 521 253 l 521 479 l 172 479 l 172 591 l 521 591 l 521 818 l 636 818 m 985 123 l 985 9 l 172 9 l 172 123 l 985 123 z "},"²":{"ha":382,"x_min":18,"x_max":334,"o":"m 18 387 l 18 444 q 104 593 39 500 q 129 631 121 618 q 200 751 179 702 q 221 844 221 800 q 206 908 221 886 q 163 930 191 930 q 139 926 150 930 q 119 911 128 921 q 137 895 132 905 q 143 871 143 885 q 127 830 143 846 q 87 814 112 814 q 46 830 61 814 q 31 872 31 846 q 73 950 31 919 q 179 981 115 981 q 291 943 248 981 q 334 844 334 905 q 308 755 334 802 q 210 624 283 708 q 189 600 203 616 q 98 476 119 519 l 215 476 q 253 481 238 476 q 274 496 267 486 q 280 511 277 501 q 306 530 287 530 l 334 530 l 334 387 l 18 387 z "},"³":{"ha":382,"x_min":24,"x_max":335,"o":"m 221 707 q 307 648 278 687 q 335 551 335 610 q 286 426 335 474 q 158 378 237 378 q 61 405 99 378 q 24 472 24 431 q 38 515 24 499 q 78 530 53 530 q 118 517 103 530 q 134 482 134 504 q 130 463 134 473 q 121 444 127 454 q 134 431 125 436 q 155 427 143 427 q 207 459 189 427 q 225 551 225 492 q 203 653 225 622 q 131 685 180 685 l 131 730 l 135 730 q 202 756 181 730 q 222 839 222 782 q 209 910 222 888 q 165 932 195 932 q 148 928 157 932 q 128 916 138 924 q 143 899 138 908 q 147 876 147 890 q 132 844 147 857 q 94 831 117 831 q 54 845 69 831 q 39 885 39 860 q 78 953 39 926 q 176 981 117 981 q 282 944 242 981 q 322 847 322 907 q 297 763 322 799 q 221 707 271 728 z "},"´":{"ha":694,"x_min":215,"x_max":553,"o":"m 489 782 l 277 671 l 215 671 l 400 861 q 450 904 429 891 q 492 917 471 917 q 536 900 519 917 q 553 856 553 883 q 540 818 553 833 q 489 782 527 802 z "},"µ":{"ha":803,"x_min":-74,"x_max":757,"o":"m 46 253 l 119 600 l 260 600 l 192 283 q 181 228 185 252 q 178 189 178 203 q 203 121 178 146 q 272 96 228 96 q 366 132 331 96 q 418 245 401 168 l 493 600 l 635 600 l 558 239 q 556 229 557 235 q 546 154 546 181 q 561 109 546 125 q 604 93 576 93 q 652 107 631 93 q 692 154 673 122 q 707 187 698 165 q 742 228 724 228 q 753 223 749 228 q 757 207 757 218 q 745 149 757 188 q 718 81 734 110 q 653 7 690 32 q 570 -17 616 -17 q 482 20 513 -17 q 450 126 451 58 q 375 19 421 56 q 269 -17 330 -17 q 163 22 202 -17 q 117 136 124 62 q 84 -77 101 52 q -7 -285 58 -285 q -56 -267 -39 -285 q -74 -216 -74 -249 q -27 -25 -74 -181 q 46 253 20 132 z "},"¶":{"ha":694,"x_min":37,"x_max":657,"o":"m 657 936 l 578 936 l 578 0 l 490 0 l 490 936 l 376 936 l 376 0 l 288 0 l 288 532 q 105 600 174 536 q 37 766 37 665 q 110 938 37 873 q 302 1003 182 1003 l 657 1003 l 657 936 z "},"·":{"ha":289,"x_min":52,"x_max":236,"o":"m 52 485 q 79 550 52 522 q 143 578 106 578 q 209 551 182 578 q 236 485 236 524 q 209 420 236 448 q 143 393 181 393 q 79 421 107 393 q 52 485 52 449 z "},"¸":{"ha":694,"x_min":168,"x_max":529,"o":"m 311 0 l 358 0 l 358 -76 q 381 -74 370 -75 q 403 -72 392 -73 q 495 -103 461 -72 q 529 -187 529 -134 q 488 -277 529 -244 q 376 -310 448 -310 q 274 -295 328 -310 q 168 -252 221 -280 l 193 -195 q 281 -232 242 -220 q 355 -244 320 -244 q 405 -230 389 -244 q 421 -184 421 -215 q 403 -144 421 -159 q 353 -129 385 -129 q 328 -132 347 -130 q 311 -134 317 -134 l 311 0 z "},"¹":{"ha":382,"x_min":77,"x_max":302,"o":"m 147 882 l 77 882 l 77 924 l 195 970 l 249 970 l 249 497 q 254 459 249 473 q 269 439 258 446 q 283 433 274 436 q 302 410 302 425 l 302 387 l 93 387 l 93 410 q 113 433 93 425 q 126 439 121 436 q 142 458 138 446 q 147 497 147 471 l 147 882 z "},"º":{"ha":383,"x_min":24,"x_max":359,"o":"m 192 1015 q 314 957 268 1015 q 359 802 359 899 q 314 645 359 702 q 192 587 269 587 q 69 645 115 587 q 24 802 24 703 q 70 957 24 899 q 192 1015 115 1015 m 192 964 q 155 933 165 964 q 144 802 144 903 q 155 669 144 699 q 192 639 165 639 q 229 667 219 639 q 239 802 239 696 q 229 935 239 906 q 192 964 218 964 z "},"»":{"ha":559,"x_min":47,"x_max":526,"o":"m 135 289 q 71 421 94 364 q 47 498 47 478 q 50 511 47 508 q 61 514 52 513 q 144 434 73 514 q 296 289 216 353 q 145 145 217 226 q 60 65 73 65 q 50 68 53 65 q 47 81 47 72 q 71 157 47 101 q 135 289 94 213 m 366 289 q 302 420 326 363 q 279 498 279 477 q 282 511 279 508 q 293 514 284 513 q 376 434 304 514 q 526 289 447 353 q 376 145 448 225 q 292 65 304 65 q 282 68 285 65 q 279 81 279 72 q 302 158 279 102 q 366 289 326 214 z "},"¼":{"ha":961,"x_min":72,"x_max":940,"o":"m 140 888 l 72 888 l 72 928 l 184 970 l 237 970 l 237 528 q 242 493 237 505 q 256 475 246 481 q 271 469 261 473 q 289 447 289 461 l 289 427 l 89 427 l 89 447 q 107 469 89 461 q 121 475 117 473 q 136 493 132 481 q 140 528 140 505 l 140 888 m 134 -17 l 737 987 l 828 987 l 225 -17 l 134 -17 m 882 82 q 884 57 882 65 q 890 45 886 48 q 900 38 893 42 q 914 21 913 31 l 914 0 l 755 0 l 755 21 q 769 38 755 30 q 779 44 777 42 q 785 56 783 47 q 787 82 787 64 l 787 134 l 619 134 l 619 189 l 812 543 l 882 543 l 882 189 l 940 189 l 940 134 l 882 134 l 882 82 m 682 189 l 787 189 l 787 383 l 682 189 z "},"½":{"ha":961,"x_min":72,"x_max":916,"o":"m 140 888 l 72 888 l 72 928 l 184 970 l 237 970 l 237 528 q 242 493 237 505 q 256 475 246 481 q 271 469 261 473 q 289 447 289 461 l 289 427 l 89 427 l 89 447 q 107 469 89 461 q 121 475 117 473 q 136 493 132 481 q 140 528 140 505 l 140 888 m 134 -17 l 737 987 l 828 987 l 225 -17 l 134 -17 m 615 0 l 615 54 q 699 195 635 106 q 721 227 713 216 q 789 341 770 296 q 808 427 808 386 q 794 486 808 465 q 753 507 779 507 q 731 503 741 507 q 711 489 720 498 q 728 474 722 484 q 733 452 733 465 q 719 413 733 427 q 681 399 705 399 q 641 413 656 399 q 627 452 627 427 q 666 524 627 496 q 768 553 706 553 q 874 518 833 553 q 916 427 916 483 q 891 343 916 387 q 798 220 867 299 q 774 194 789 211 q 692 82 710 123 l 803 82 q 839 87 825 82 q 859 102 853 92 q 865 116 862 107 q 889 134 871 133 l 916 134 l 916 0 l 615 0 z "},"¾":{"ha":961,"x_min":22,"x_max":940,"o":"m 211 724 q 292 670 265 706 q 319 579 319 633 q 273 461 319 506 q 150 416 226 416 q 59 442 95 416 q 22 505 22 468 q 37 545 22 530 q 75 559 51 559 q 113 547 98 559 q 127 515 127 534 q 124 497 127 506 q 115 479 121 488 q 129 467 121 471 q 149 463 137 463 q 197 493 180 463 q 214 579 214 524 q 192 674 214 644 q 123 705 171 703 l 123 747 l 129 747 q 192 771 172 747 q 211 848 211 795 q 199 915 211 895 q 158 935 186 935 q 141 931 150 935 q 123 919 132 927 q 136 904 132 913 q 140 884 140 896 q 126 851 140 864 q 90 839 112 839 q 52 853 66 839 q 37 890 37 867 q 74 954 37 928 q 168 979 111 979 q 270 945 231 979 q 309 856 309 911 q 284 778 309 810 q 211 724 260 745 m 134 -17 l 737 987 l 828 987 l 225 -17 l 134 -17 m 882 82 q 884 57 882 65 q 890 45 886 48 q 900 38 893 42 q 914 21 913 31 l 914 0 l 755 0 l 755 21 q 769 38 755 30 q 779 44 777 42 q 785 56 783 47 q 787 82 787 64 l 787 134 l 619 134 l 619 189 l 812 543 l 882 543 l 882 189 l 940 189 l 940 134 l 882 134 l 882 82 m 682 189 l 787 189 l 787 383 l 682 189 z "},"¿":{"ha":494,"x_min":54,"x_max":456,"o":"m 301 737 q 302 714 302 727 q 302 676 302 701 q 296 562 302 618 q 278 452 290 505 q 259 379 272 427 q 222 175 222 245 q 240 97 222 124 q 290 71 257 71 q 309 74 301 71 q 323 86 317 78 q 299 115 307 100 q 292 150 292 130 q 314 209 292 186 q 371 232 336 232 q 433 208 410 232 q 456 143 456 184 q 399 28 456 73 q 254 -17 343 -17 q 109 38 163 -17 q 54 184 54 93 q 133 399 54 273 q 160 443 151 429 q 219 582 200 513 q 237 729 237 650 l 237 737 l 301 737 m 370 911 q 340 841 370 870 q 271 811 311 811 q 200 840 229 811 q 171 911 171 869 q 201 982 171 952 q 271 1011 231 1011 q 340 981 310 1011 q 370 911 370 951 z "},"À":{"ha":694,"x_min":-18,"x_max":713,"o":"m 186 241 l 164 165 q 158 141 160 152 q 155 123 155 131 q 162 98 155 108 q 184 77 168 87 q 191 73 186 75 q 210 41 210 62 l 210 0 l -18 0 l -18 41 q 5 73 -18 60 q 20 82 15 79 q 66 165 48 102 q 73 188 70 180 l 257 804 l 241 856 q 238 871 239 863 q 237 888 237 879 q 273 936 237 899 q 300 965 290 954 q 321 991 309 975 q 350 1018 343 1018 q 359 1008 355 1018 l 359 1007 l 621 187 q 628 162 624 178 q 673 82 645 101 q 687 74 678 79 q 713 41 713 59 l 713 0 l 410 0 l 410 41 q 432 77 410 62 q 454 106 454 92 q 452 126 454 114 q 446 155 450 139 l 424 241 l 186 241 m 214 340 l 393 340 l 300 648 l 214 340 m 294 1286 l 479 1096 l 418 1096 l 205 1207 q 155 1243 168 1227 q 142 1281 142 1259 q 159 1325 142 1308 q 203 1342 176 1342 q 244 1329 223 1342 q 294 1286 266 1316 z "},"Á":{"ha":694,"x_min":-18,"x_max":713,"o":"m 186 241 l 164 165 q 158 141 160 152 q 155 123 155 131 q 162 98 155 108 q 184 77 168 87 q 191 73 186 75 q 210 41 210 62 l 210 0 l -18 0 l -18 41 q 5 73 -18 60 q 20 82 15 79 q 66 165 48 102 q 73 188 70 180 l 257 804 l 241 856 q 238 871 239 863 q 237 888 237 879 q 273 936 237 899 q 300 965 290 954 q 321 991 309 975 q 350 1018 343 1018 q 359 1008 355 1018 l 359 1007 l 621 187 q 628 162 624 178 q 673 82 645 101 q 687 74 678 79 q 713 41 713 59 l 713 0 l 410 0 l 410 41 q 432 77 410 62 q 454 106 454 92 q 452 126 454 114 q 446 155 450 139 l 424 241 l 186 241 m 214 340 l 393 340 l 300 648 l 214 340 m 489 1207 l 277 1096 l 215 1096 l 400 1286 q 450 1329 429 1316 q 492 1342 471 1342 q 536 1325 519 1342 q 553 1281 553 1308 q 540 1243 553 1259 q 489 1207 527 1227 z "},"Â":{"ha":694,"x_min":-18,"x_max":713,"o":"m 186 241 l 164 165 q 158 141 160 152 q 155 123 155 131 q 162 98 155 108 q 184 77 168 87 q 191 73 186 75 q 210 41 210 62 l 210 0 l -18 0 l -18 41 q 5 73 -18 60 q 20 82 15 79 q 66 165 48 102 q 73 188 70 180 l 257 804 l 241 856 q 238 871 239 863 q 237 888 237 879 q 273 936 237 899 q 300 965 290 954 q 321 991 309 975 q 350 1018 343 1018 q 359 1008 355 1018 l 359 1007 l 621 187 q 628 162 624 178 q 673 82 645 101 q 687 74 678 79 q 713 41 713 59 l 713 0 l 410 0 l 410 41 q 432 77 410 62 q 454 106 454 92 q 452 126 454 114 q 446 155 450 139 l 424 241 l 186 241 m 214 340 l 393 340 l 300 648 l 214 340 m 297 1332 l 397 1332 l 550 1096 l 493 1096 l 347 1217 l 201 1096 l 144 1096 l 297 1332 z "},"Ã":{"ha":694,"x_min":-18,"x_max":713,"o":"m 186 241 l 164 165 q 158 141 160 152 q 155 123 155 131 q 162 98 155 108 q 184 77 168 87 q 191 73 186 75 q 210 41 210 62 l 210 0 l -18 0 l -18 41 q 5 73 -18 60 q 20 82 15 79 q 66 165 48 102 q 73 188 70 180 l 257 804 l 241 856 q 238 871 239 863 q 237 888 237 879 q 273 936 237 899 q 300 965 290 954 q 321 991 309 975 q 350 1018 343 1018 q 359 1008 355 1018 l 359 1007 l 621 187 q 628 162 624 178 q 673 82 645 101 q 687 74 678 79 q 713 41 713 59 l 713 0 l 410 0 l 410 41 q 432 77 410 62 q 454 106 454 92 q 452 126 454 114 q 446 155 450 139 l 424 241 l 186 241 m 214 340 l 393 340 l 300 648 l 214 340 m 498 1314 l 543 1314 q 497 1190 534 1234 q 404 1146 460 1146 q 369 1151 393 1146 q 366 1152 366 1152 l 294 1171 q 275 1175 285 1174 q 256 1177 264 1177 q 220 1162 235 1177 q 195 1117 205 1148 l 150 1117 q 197 1242 161 1201 q 293 1284 233 1284 q 316 1282 306 1284 q 336 1278 327 1281 l 410 1260 q 423 1257 416 1258 q 436 1256 430 1256 q 473 1270 458 1256 q 498 1314 488 1283 z "},"Ä":{"ha":694,"x_min":-18,"x_max":713,"o":"m 186 241 l 164 165 q 158 141 160 152 q 155 123 155 131 q 162 98 155 108 q 184 77 168 87 q 191 73 186 75 q 210 41 210 62 l 210 0 l -18 0 l -18 41 q 5 73 -18 60 q 20 82 15 79 q 66 165 48 102 q 73 188 70 180 l 257 804 l 241 856 q 238 871 239 863 q 237 888 237 879 q 273 936 237 899 q 300 965 290 954 q 321 991 309 975 q 350 1018 343 1018 q 359 1008 355 1018 l 359 1007 l 621 187 q 628 162 624 178 q 673 82 645 101 q 687 74 678 79 q 713 41 713 59 l 713 0 l 410 0 l 410 41 q 432 77 410 62 q 454 106 454 92 q 452 126 454 114 q 446 155 450 139 l 424 241 l 186 241 m 214 340 l 393 340 l 300 648 l 214 340 m 224 1288 q 281 1264 257 1288 q 304 1207 304 1240 q 282 1147 304 1171 q 224 1124 259 1124 q 165 1148 189 1124 q 142 1207 142 1172 q 166 1264 142 1240 q 224 1288 191 1288 m 471 1288 q 528 1264 504 1288 q 551 1207 551 1240 q 529 1147 551 1171 q 471 1124 506 1124 q 412 1148 436 1124 q 389 1207 389 1172 q 413 1264 389 1240 q 471 1288 437 1288 z "},"Å":{"ha":694,"x_min":-18,"x_max":713,"o":"m 186 241 l 164 165 q 158 141 160 152 q 155 123 155 131 q 162 98 155 108 q 184 77 168 87 q 191 73 186 75 q 210 41 210 62 l 210 0 l -18 0 l -18 41 q 5 73 -18 60 q 20 82 15 79 q 66 165 48 102 q 73 188 70 180 l 257 804 l 241 856 q 241 859 241 857 q 236 880 236 875 q 264 919 236 897 q 275 928 271 924 q 304 952 287 937 q 353 983 342 983 q 369 972 362 983 q 386 932 376 962 l 621 187 q 628 162 624 178 q 673 82 645 101 q 687 74 678 79 q 713 41 713 59 l 713 0 l 410 0 l 410 41 q 432 77 410 62 q 454 106 454 92 q 452 126 454 114 q 446 155 450 139 l 424 241 l 186 241 m 214 340 l 393 340 l 300 648 l 214 340 m 332 1337 q 447 1290 399 1337 q 494 1175 494 1242 q 447 1060 494 1107 q 332 1013 400 1013 q 216 1059 263 1013 q 170 1175 170 1106 q 217 1290 170 1243 q 332 1337 264 1337 m 334 1263 q 271 1237 297 1263 q 245 1175 245 1211 q 271 1113 245 1139 q 334 1088 297 1088 q 393 1113 369 1088 q 418 1175 418 1139 q 393 1237 418 1211 q 334 1263 369 1263 z "},"Æ":{"ha":1025,"x_min":-31,"x_max":987,"o":"m 419 0 l 419 36 q 445 77 419 60 q 461 89 455 84 q 476 117 472 97 q 481 187 481 136 l 481 244 l 207 244 q 199 222 204 237 q 171 126 171 146 q 199 76 171 99 l 199 75 q 204 72 201 74 q 221 36 221 60 l 221 0 l -31 0 l -31 36 q 3 81 -31 64 l 4 82 q 86 186 56 112 q 92 200 90 195 l 355 822 q 358 828 357 825 q 372 879 372 861 q 369 900 372 890 q 361 913 366 909 q 347 922 356 916 q 318 966 318 941 l 318 1003 l 777 1003 q 872 1007 831 1003 q 947 1019 914 1011 l 947 790 l 905 790 q 861 828 874 790 q 842 867 851 853 q 801 903 823 893 q 711 913 779 913 l 647 913 l 647 559 l 690 559 q 742 569 725 559 q 770 602 759 578 q 777 617 773 608 q 815 644 785 644 l 846 644 l 846 385 l 815 385 q 777 412 785 385 q 771 426 773 421 q 743 460 760 450 q 690 469 726 469 l 647 469 l 647 90 l 710 90 q 824 102 791 90 q 878 146 856 115 q 902 209 892 166 q 909 234 906 226 q 915 239 910 237 q 926 241 920 241 l 933 241 l 987 241 l 987 0 l 419 0 m 245 345 l 481 345 l 481 913 l 245 345 z "},"Ç":{"ha":656,"x_min":37,"x_max":648,"o":"m 648 178 q 532 30 597 77 q 378 -17 467 -17 q 131 120 225 -17 q 37 482 37 256 q 135 869 37 718 q 378 1019 232 1019 q 478 995 429 1019 q 530 970 528 970 q 548 977 537 970 q 572 985 559 985 l 608 985 l 608 733 l 572 733 q 526 779 538 733 q 518 806 522 795 q 465 899 497 869 q 386 929 433 929 q 263 831 302 929 q 224 524 224 732 q 271 201 224 310 q 410 93 317 93 q 503 125 463 93 q 574 224 543 157 l 648 178 m 330 0 l 376 0 l 376 -76 q 399 -74 388 -75 q 421 -72 410 -73 q 513 -103 479 -72 q 547 -187 547 -134 q 507 -277 547 -244 q 395 -310 466 -310 q 293 -295 346 -310 q 186 -252 239 -280 l 212 -195 q 299 -232 260 -220 q 374 -244 338 -244 q 423 -230 407 -244 q 439 -184 439 -215 q 421 -144 439 -159 q 371 -129 403 -129 q 346 -132 365 -130 q 330 -134 336 -134 l 330 0 z "},"È":{"ha":663,"x_min":56,"x_max":625,"o":"m 56 0 l 56 36 q 81 77 56 60 q 97 89 92 84 q 112 117 108 97 q 117 187 117 136 l 117 815 q 112 885 117 865 q 97 916 108 905 q 84 926 92 920 q 62 966 62 943 l 62 1003 l 414 1003 q 510 1007 469 1003 q 585 1019 551 1011 l 585 790 l 542 790 q 498 827 511 790 q 479 867 489 852 q 438 903 461 893 q 349 913 416 913 l 285 913 l 285 559 l 326 559 q 379 569 361 559 q 408 603 397 578 q 414 618 411 609 q 452 644 422 644 l 482 644 l 482 385 l 452 385 q 414 410 422 385 q 408 427 411 420 q 380 460 398 450 q 326 469 362 469 l 285 469 l 285 90 l 347 90 q 461 102 429 90 q 515 146 493 115 q 539 208 528 165 q 571 250 550 250 l 625 250 l 625 0 l 56 0 m 279 1286 l 465 1096 l 403 1096 l 191 1207 q 140 1243 153 1227 q 127 1281 127 1259 q 144 1325 127 1308 q 188 1342 161 1342 q 230 1329 208 1342 q 279 1286 251 1316 z "},"É":{"ha":663,"x_min":56,"x_max":625,"o":"m 56 0 l 56 36 q 81 77 56 60 q 97 89 92 84 q 112 117 108 97 q 117 187 117 136 l 117 815 q 112 885 117 865 q 97 916 108 905 q 84 926 92 920 q 62 966 62 943 l 62 1003 l 414 1003 q 510 1007 469 1003 q 585 1019 551 1011 l 585 790 l 542 790 q 498 827 511 790 q 479 867 489 852 q 438 903 461 893 q 349 913 416 913 l 285 913 l 285 559 l 326 559 q 379 569 361 559 q 408 603 397 578 q 414 618 411 609 q 452 644 422 644 l 482 644 l 482 385 l 452 385 q 414 410 422 385 q 408 427 411 420 q 380 460 398 450 q 326 469 362 469 l 285 469 l 285 90 l 347 90 q 461 102 429 90 q 515 146 493 115 q 539 208 528 165 q 571 250 550 250 l 625 250 l 625 0 l 56 0 m 474 1207 l 262 1096 l 200 1096 l 385 1286 q 435 1329 414 1316 q 477 1342 456 1342 q 521 1325 504 1342 q 538 1281 538 1308 q 525 1243 538 1259 q 474 1207 512 1227 z "},"Ê":{"ha":663,"x_min":56,"x_max":625,"o":"m 56 0 l 56 36 q 81 77 56 60 q 97 89 92 84 q 112 117 108 97 q 117 187 117 136 l 117 815 q 112 885 117 865 q 97 916 108 905 q 84 926 92 920 q 62 966 62 943 l 62 1003 l 414 1003 q 510 1007 469 1003 q 585 1019 551 1011 l 585 790 l 542 790 q 498 827 511 790 q 479 867 489 852 q 438 903 461 893 q 349 913 416 913 l 285 913 l 285 559 l 326 559 q 379 569 361 559 q 408 603 397 578 q 414 618 411 609 q 452 644 422 644 l 482 644 l 482 385 l 452 385 q 414 410 422 385 q 408 427 411 420 q 380 460 398 450 q 326 469 362 469 l 285 469 l 285 90 l 347 90 q 461 102 429 90 q 515 146 493 115 q 539 208 528 165 q 571 250 550 250 l 625 250 l 625 0 l 56 0 m 282 1332 l 382 1332 l 535 1096 l 478 1096 l 332 1217 l 186 1096 l 130 1096 l 282 1332 z "},"Ë":{"ha":663,"x_min":56,"x_max":625,"o":"m 56 0 l 56 36 q 81 77 56 60 q 97 89 92 84 q 112 117 108 97 q 117 187 117 136 l 117 815 q 112 885 117 865 q 97 916 108 905 q 84 926 92 920 q 62 966 62 943 l 62 1003 l 414 1003 q 510 1007 469 1003 q 585 1019 551 1011 l 585 790 l 542 790 q 498 827 511 790 q 479 867 489 852 q 438 903 461 893 q 349 913 416 913 l 285 913 l 285 559 l 326 559 q 379 569 361 559 q 408 603 397 578 q 414 618 411 609 q 452 644 422 644 l 482 644 l 482 385 l 452 385 q 414 410 422 385 q 408 427 411 420 q 380 460 398 450 q 326 469 362 469 l 285 469 l 285 90 l 347 90 q 461 102 429 90 q 515 146 493 115 q 539 208 528 165 q 571 250 550 250 l 625 250 l 625 0 l 56 0 m 209 1288 q 266 1264 242 1288 q 290 1207 290 1240 q 267 1147 290 1171 q 209 1124 244 1124 q 151 1148 174 1124 q 127 1207 127 1172 q 151 1264 127 1240 q 209 1288 176 1288 m 456 1288 q 513 1264 489 1288 q 536 1207 536 1240 q 514 1147 536 1171 q 456 1124 491 1124 q 397 1148 421 1124 q 374 1207 374 1172 q 398 1264 374 1240 q 456 1288 422 1288 z "},"Ì":{"ha":408,"x_min":-1,"x_max":350,"o":"m 288 187 q 292 117 288 136 q 307 89 296 97 q 324 77 313 84 q 350 36 350 60 l 350 0 l 58 0 l 58 36 q 84 77 58 60 q 101 89 96 84 q 116 117 112 97 q 121 187 121 136 l 121 815 q 116 882 121 861 q 100 916 111 904 q 87 926 96 920 q 65 966 65 943 l 65 1003 l 343 1003 l 343 966 q 321 926 343 943 q 307 916 311 920 q 292 885 296 905 q 288 815 288 865 l 288 187 m 152 1286 l 337 1096 l 275 1096 l 63 1207 q 12 1243 25 1227 q -1 1281 -1 1259 q 16 1325 -1 1308 q 60 1342 33 1342 q 102 1329 81 1342 q 152 1286 123 1316 z "},"Í":{"ha":408,"x_min":58,"x_max":410,"o":"m 288 187 q 292 117 288 136 q 307 89 296 97 q 324 77 313 84 q 350 36 350 60 l 350 0 l 58 0 l 58 36 q 84 77 58 60 q 101 89 96 84 q 116 117 112 97 q 121 187 121 136 l 121 815 q 116 882 121 861 q 100 916 111 904 q 87 926 96 920 q 65 966 65 943 l 65 1003 l 343 1003 l 343 966 q 321 926 343 943 q 307 916 311 920 q 292 885 296 905 q 288 815 288 865 l 288 187 m 347 1207 l 134 1096 l 73 1096 l 258 1286 q 308 1329 286 1316 q 349 1342 329 1342 q 393 1325 376 1342 q 410 1281 410 1308 q 397 1243 410 1259 q 347 1207 385 1227 z "},"Î":{"ha":408,"x_min":2,"x_max":408,"o":"m 288 187 q 292 117 288 136 q 307 89 296 97 q 324 77 313 84 q 350 36 350 60 l 350 0 l 58 0 l 58 36 q 84 77 58 60 q 101 89 96 84 q 116 117 112 97 q 121 187 121 136 l 121 815 q 116 882 121 861 q 100 916 111 904 q 87 926 96 920 q 65 966 65 943 l 65 1003 l 343 1003 l 343 966 q 321 926 343 943 q 307 916 311 920 q 292 885 296 905 q 288 815 288 865 l 288 187 m 155 1332 l 255 1332 l 408 1096 l 351 1096 l 205 1217 l 59 1096 l 2 1096 l 155 1332 z "},"Ï":{"ha":408,"x_min":-1,"x_max":409,"o":"m 288 187 q 292 117 288 136 q 307 89 296 97 q 324 77 313 84 q 350 36 350 60 l 350 0 l 58 0 l 58 36 q 84 77 58 60 q 101 89 96 84 q 116 117 112 97 q 121 187 121 136 l 121 815 q 116 882 121 861 q 100 916 111 904 q 87 926 96 920 q 65 966 65 943 l 65 1003 l 343 1003 l 343 966 q 321 926 343 943 q 307 916 311 920 q 292 885 296 905 q 288 815 288 865 l 288 187 m 81 1288 q 138 1264 115 1288 q 162 1207 162 1240 q 139 1147 162 1171 q 81 1124 117 1124 q 23 1148 47 1124 q -1 1207 -1 1172 q 24 1264 -1 1240 q 81 1288 48 1288 m 328 1288 q 385 1264 361 1288 q 409 1207 409 1240 q 386 1147 409 1171 q 328 1124 363 1124 q 270 1148 294 1124 q 246 1207 246 1172 q 271 1264 246 1240 q 328 1288 295 1288 z "},"Ð":{"ha":777,"x_min":0,"x_max":736,"o":"m 64 0 l 64 36 q 89 77 64 60 q 106 89 100 84 q 121 119 117 98 q 126 187 126 140 l 126 472 l 0 472 l 0 566 l 126 566 l 126 815 q 121 882 126 861 q 106 916 117 904 q 92 926 101 920 q 71 966 71 943 l 71 1003 l 282 1003 q 443 990 386 1003 q 546 947 500 977 q 688 774 640 887 q 736 501 736 661 q 628 123 736 246 q 294 0 519 0 l 64 0 m 293 913 l 293 566 l 424 566 l 424 472 l 293 472 l 293 90 l 347 90 q 506 178 460 90 q 551 501 551 265 q 506 825 551 737 q 347 913 460 913 l 293 913 z "},"Ñ":{"ha":758,"x_min":49,"x_max":701,"o":"m 551 401 l 551 815 q 547 882 551 861 q 530 916 542 904 q 517 926 526 920 q 496 966 496 943 l 496 1003 l 701 1003 l 701 966 q 679 926 701 943 q 665 915 671 920 q 650 885 654 905 q 646 815 646 865 l 646 0 l 558 0 l 212 755 l 212 187 q 217 117 212 136 q 232 89 221 97 q 248 77 238 84 q 273 36 273 60 l 273 0 l 56 0 l 56 36 q 81 77 56 60 q 97 89 92 84 q 112 117 108 97 q 117 187 117 136 l 117 815 q 111 886 117 867 q 93 916 106 905 q 74 928 86 921 q 49 966 49 943 l 49 1003 l 275 1003 l 551 401 m 530 1314 l 575 1314 q 529 1190 566 1234 q 436 1146 492 1146 q 401 1151 425 1146 q 397 1152 398 1152 l 326 1171 q 307 1175 317 1174 q 288 1177 296 1177 q 252 1162 267 1177 q 227 1117 237 1148 l 182 1117 q 229 1242 193 1201 q 325 1284 264 1284 q 348 1282 338 1284 q 368 1278 359 1281 l 441 1260 q 455 1257 448 1258 q 468 1256 462 1256 q 505 1270 490 1256 q 530 1314 519 1283 z "},"Ò":{"ha":758,"x_min":39,"x_max":721,"o":"m 379 -17 q 131 123 224 -17 q 39 501 39 263 q 131 880 39 740 q 379 1019 224 1019 q 628 880 534 1019 q 721 501 721 740 q 628 123 721 263 q 379 -17 534 -17 m 379 74 q 498 166 464 74 q 533 501 533 258 q 498 838 533 747 q 379 929 464 929 q 260 837 294 929 q 225 501 225 745 q 260 166 225 258 q 379 74 294 74 m 326 1286 l 511 1096 l 450 1096 l 237 1207 q 186 1243 199 1227 q 174 1281 174 1259 q 191 1325 174 1308 q 235 1342 208 1342 q 276 1329 255 1342 q 326 1286 298 1316 z "},"Ó":{"ha":758,"x_min":39,"x_max":721,"o":"m 379 -17 q 131 123 224 -17 q 39 501 39 263 q 131 880 39 740 q 379 1019 224 1019 q 628 880 534 1019 q 721 501 721 740 q 628 123 721 263 q 379 -17 534 -17 m 379 74 q 498 166 464 74 q 533 501 533 258 q 498 838 533 747 q 379 929 464 929 q 260 837 294 929 q 225 501 225 745 q 260 166 225 258 q 379 74 294 74 m 521 1207 l 309 1096 l 247 1096 l 432 1286 q 482 1329 460 1316 q 524 1342 503 1342 q 568 1325 551 1342 q 585 1281 585 1308 q 572 1243 585 1259 q 521 1207 559 1227 z "},"Ô":{"ha":758,"x_min":39,"x_max":721,"o":"m 379 -17 q 131 123 224 -17 q 39 501 39 263 q 131 880 39 740 q 379 1019 224 1019 q 628 880 534 1019 q 721 501 721 740 q 628 123 721 263 q 379 -17 534 -17 m 379 74 q 498 166 464 74 q 533 501 533 258 q 498 838 533 747 q 379 929 464 929 q 260 837 294 929 q 225 501 225 745 q 260 166 225 258 q 379 74 294 74 m 329 1332 l 429 1332 l 582 1096 l 525 1096 l 379 1217 l 233 1096 l 176 1096 l 329 1332 z "},"Õ":{"ha":758,"x_min":39,"x_max":721,"o":"m 379 -17 q 131 123 224 -17 q 39 501 39 263 q 131 880 39 740 q 379 1019 224 1019 q 628 880 534 1019 q 721 501 721 740 q 628 123 721 263 q 379 -17 534 -17 m 379 74 q 498 166 464 74 q 533 501 533 258 q 498 838 533 747 q 379 929 464 929 q 260 837 294 929 q 225 501 225 745 q 260 166 225 258 q 379 74 294 74 m 530 1314 l 575 1314 q 529 1190 566 1234 q 436 1146 492 1146 q 401 1151 425 1146 q 397 1152 398 1152 l 326 1171 q 307 1175 317 1174 q 288 1177 296 1177 q 252 1162 267 1177 q 227 1117 237 1148 l 182 1117 q 229 1242 193 1201 q 325 1284 264 1284 q 348 1282 338 1284 q 368 1278 359 1281 l 441 1260 q 455 1257 448 1258 q 468 1256 462 1256 q 505 1270 490 1256 q 530 1314 519 1283 z "},"Ö":{"ha":758,"x_min":39,"x_max":721,"o":"m 379 -17 q 131 123 224 -17 q 39 501 39 263 q 131 880 39 740 q 379 1019 224 1019 q 628 880 534 1019 q 721 501 721 740 q 628 123 721 263 q 379 -17 534 -17 m 379 74 q 498 166 464 74 q 533 501 533 258 q 498 838 533 747 q 379 929 464 929 q 260 837 294 929 q 225 501 225 745 q 260 166 225 258 q 379 74 294 74 m 256 1288 q 313 1264 289 1288 q 336 1207 336 1240 q 314 1147 336 1171 q 256 1124 291 1124 q 197 1148 221 1124 q 174 1207 174 1172 q 198 1264 174 1240 q 256 1288 222 1288 m 503 1288 q 559 1264 536 1288 q 583 1207 583 1240 q 561 1147 583 1171 q 503 1124 538 1124 q 444 1148 468 1124 q 420 1207 420 1172 q 445 1264 420 1240 q 503 1288 469 1288 z "},"×":{"ha":1157,"x_min":195,"x_max":977,"o":"m 585 494 l 897 806 l 977 726 l 665 414 l 977 103 l 897 22 l 585 335 l 273 22 l 195 103 l 505 414 l 195 726 l 273 806 l 585 494 z "},"Ø":{"ha":758,"x_min":39,"x_max":721,"o":"m 239 254 l 486 865 q 441 912 469 895 q 379 929 413 929 q 259 836 293 929 q 225 473 225 742 q 229 353 225 408 q 239 254 232 299 m 521 755 l 271 138 q 321 89 296 103 q 379 74 346 74 q 498 166 464 74 q 533 501 533 258 q 530 640 533 578 q 521 755 527 702 m 98 -90 l 168 78 q 72 250 106 140 q 39 501 39 359 q 131 880 39 740 q 379 1019 224 1019 q 459 1009 421 1019 q 530 977 496 998 l 564 1061 l 647 1061 l 591 924 q 688 749 654 858 q 721 501 721 641 q 628 123 721 263 q 379 -17 534 -17 q 298 -6 335 -17 q 227 26 262 4 l 182 -90 l 98 -90 z "},"Ù":{"ha":781,"x_min":57,"x_max":728,"o":"m 572 815 q 568 885 572 865 q 553 916 564 905 q 540 926 548 920 q 518 966 518 943 l 518 1003 l 728 1003 l 728 966 q 705 926 728 943 q 691 915 697 920 q 676 885 681 905 q 672 815 672 865 l 672 338 q 601 70 672 157 q 382 -17 530 -17 q 255 8 311 -17 q 165 81 200 33 q 125 172 137 120 q 113 345 113 224 l 113 815 q 108 885 113 865 q 94 915 104 905 q 79 926 87 920 q 57 966 57 943 l 57 1003 l 335 1003 l 335 966 q 313 926 335 943 q 300 916 304 920 q 284 882 289 904 q 279 815 279 861 l 279 349 q 310 146 279 200 q 418 92 341 92 q 537 154 502 92 q 572 376 572 217 l 572 815 m 337 1286 l 522 1096 l 460 1096 l 248 1207 q 197 1243 210 1227 q 184 1281 184 1259 q 201 1325 184 1308 q 245 1342 218 1342 q 287 1329 266 1342 q 337 1286 309 1316 z "},"Ú":{"ha":781,"x_min":57,"x_max":728,"o":"m 572 815 q 568 885 572 865 q 553 916 564 905 q 540 926 548 920 q 518 966 518 943 l 518 1003 l 728 1003 l 728 966 q 705 926 728 943 q 691 915 697 920 q 676 885 681 905 q 672 815 672 865 l 672 338 q 601 70 672 157 q 382 -17 530 -17 q 255 8 311 -17 q 165 81 200 33 q 125 172 137 120 q 113 345 113 224 l 113 815 q 108 885 113 865 q 94 915 104 905 q 79 926 87 920 q 57 966 57 943 l 57 1003 l 335 1003 l 335 966 q 313 926 335 943 q 300 916 304 920 q 284 882 289 904 q 279 815 279 861 l 279 349 q 310 146 279 200 q 418 92 341 92 q 537 154 502 92 q 572 376 572 217 l 572 815 m 532 1207 l 319 1096 l 258 1096 l 443 1286 q 493 1329 471 1316 q 534 1342 514 1342 q 578 1325 562 1342 q 595 1281 595 1308 q 583 1243 595 1259 q 532 1207 570 1227 z "},"Û":{"ha":781,"x_min":57,"x_max":728,"o":"m 572 815 q 568 885 572 865 q 553 916 564 905 q 540 926 548 920 q 518 966 518 943 l 518 1003 l 728 1003 l 728 966 q 705 926 728 943 q 691 915 697 920 q 676 885 681 905 q 672 815 672 865 l 672 338 q 601 70 672 157 q 382 -17 530 -17 q 255 8 311 -17 q 165 81 200 33 q 125 172 137 120 q 113 345 113 224 l 113 815 q 108 885 113 865 q 94 915 104 905 q 79 926 87 920 q 57 966 57 943 l 57 1003 l 335 1003 l 335 966 q 313 926 335 943 q 300 916 304 920 q 284 882 289 904 q 279 815 279 861 l 279 349 q 310 146 279 200 q 418 92 341 92 q 537 154 502 92 q 572 376 572 217 l 572 815 m 340 1332 l 440 1332 l 593 1096 l 536 1096 l 390 1217 l 244 1096 l 187 1096 l 340 1332 z "},"Ü":{"ha":781,"x_min":57,"x_max":728,"o":"m 572 815 q 568 885 572 865 q 553 916 564 905 q 540 926 548 920 q 518 966 518 943 l 518 1003 l 728 1003 l 728 966 q 705 926 728 943 q 691 915 697 920 q 676 885 681 905 q 672 815 672 865 l 672 338 q 601 70 672 157 q 382 -17 530 -17 q 255 8 311 -17 q 165 81 200 33 q 125 172 137 120 q 113 345 113 224 l 113 815 q 108 885 113 865 q 94 915 104 905 q 79 926 87 920 q 57 966 57 943 l 57 1003 l 335 1003 l 335 966 q 313 926 335 943 q 300 916 304 920 q 284 882 289 904 q 279 815 279 861 l 279 349 q 310 146 279 200 q 418 92 341 92 q 537 154 502 92 q 572 376 572 217 l 572 815 m 267 1288 q 323 1264 300 1288 q 347 1207 347 1240 q 325 1147 347 1171 q 267 1124 302 1124 q 208 1148 232 1124 q 184 1207 184 1172 q 209 1264 184 1240 q 267 1288 233 1288 m 513 1288 q 570 1264 547 1288 q 594 1207 594 1240 q 571 1147 594 1171 q 513 1124 549 1124 q 455 1148 479 1124 q 431 1207 431 1172 q 456 1264 431 1240 q 513 1288 480 1288 z "},"Ý":{"ha":599,"x_min":-20,"x_max":611,"o":"m 389 489 l 389 187 q 393 117 389 136 q 408 89 397 97 q 425 77 414 84 q 450 36 450 60 l 450 0 l 160 0 l 160 36 q 185 77 160 60 q 201 89 195 84 q 217 117 212 97 q 221 187 221 136 l 221 472 l 56 854 q 52 864 54 857 q 7 925 33 909 q -15 944 -11 936 q -20 966 -20 952 l -20 1003 l 272 1003 l 272 966 q 247 924 272 945 q 222 880 222 903 q 225 860 222 870 q 232 839 227 850 l 338 597 l 436 846 q 444 867 441 859 q 446 882 446 876 q 420 924 446 905 q 395 966 395 943 l 395 1003 l 611 1003 l 611 966 q 583 922 611 944 q 543 872 555 901 l 389 489 m 442 1207 l 230 1096 l 168 1096 l 353 1286 q 403 1329 382 1316 q 445 1342 425 1342 q 489 1325 472 1342 q 506 1281 506 1308 q 493 1243 506 1259 q 442 1207 480 1227 z "},"Þ":{"ha":668,"x_min":56,"x_max":646,"o":"m 285 330 q 297 328 291 328 q 317 328 304 328 q 430 372 394 328 q 465 514 465 417 q 425 653 465 606 q 306 700 385 700 q 295 699 302 700 q 285 699 288 699 l 285 330 m 117 815 q 112 885 117 865 q 97 916 108 905 q 84 926 92 920 q 62 966 62 943 l 62 1003 l 339 1003 l 339 966 q 317 926 339 943 q 304 916 309 920 q 289 885 294 905 q 285 815 285 865 l 285 788 q 301 788 292 788 q 326 789 310 789 q 561 717 476 789 q 646 518 646 645 q 563 311 646 382 q 323 239 479 239 q 300 239 308 239 q 285 240 292 239 l 285 187 q 289 117 285 136 q 304 89 294 97 q 321 77 310 84 q 346 36 346 60 l 346 0 l 56 0 l 56 36 q 81 77 56 60 q 97 89 92 84 q 112 117 108 97 q 117 187 117 136 l 117 815 z "},"ß":{"ha":595,"x_min":25,"x_max":562,"o":"m 43 0 l 43 36 q 62 69 43 54 q 73 79 70 75 q 82 101 80 87 q 85 147 85 115 l 85 498 l 25 498 l 25 545 q 48 582 25 570 q 63 591 57 587 q 81 613 75 599 q 89 656 87 628 q 92 704 90 673 q 129 905 97 843 q 197 977 153 951 q 296 1003 241 1003 q 457 942 401 1003 q 513 765 513 881 q 476 625 513 684 q 376 550 439 567 q 516 462 469 535 q 562 257 562 389 q 507 55 562 127 q 354 -17 452 -17 q 324 -15 339 -17 q 293 -7 309 -12 l 293 81 q 318 75 307 77 q 338 72 329 73 q 387 112 373 72 q 401 265 401 152 q 378 439 401 384 q 306 494 355 494 q 299 494 303 494 q 293 493 295 493 l 293 571 q 355 618 336 578 q 374 743 374 657 q 355 886 374 844 q 296 929 337 929 q 246 898 260 929 q 232 758 232 867 l 232 0 l 43 0 z "},"à":{"ha":521,"x_min":29,"x_max":522,"o":"m 322 60 q 264 3 300 22 q 180 -16 228 -16 q 71 30 113 -16 q 29 151 29 76 q 98 303 29 248 q 297 364 167 357 l 293 416 q 275 500 289 481 q 228 518 260 518 q 214 516 221 518 q 200 511 206 514 q 201 507 201 509 q 205 490 205 495 q 186 423 205 446 q 129 400 167 400 q 77 421 98 400 q 57 475 57 442 q 105 561 57 527 q 231 595 153 595 q 385 541 334 595 q 439 374 436 486 l 444 153 q 444 151 444 152 q 486 69 446 70 q 493 72 490 70 q 501 76 497 73 l 522 22 q 476 -6 503 4 q 422 -17 450 -17 q 362 1 385 -17 q 322 60 339 18 m 302 286 q 207 248 241 282 q 174 153 174 213 q 189 97 174 117 q 232 77 205 77 q 286 107 268 77 q 304 197 304 137 l 304 210 l 302 286 m 199 861 l 385 671 l 323 671 l 111 782 q 60 818 73 802 q 47 856 47 833 q 64 900 47 883 q 108 917 81 917 q 150 904 128 917 q 199 861 171 891 z "},"á":{"ha":521,"x_min":29,"x_max":522,"o":"m 322 60 q 264 3 300 22 q 180 -16 228 -16 q 71 30 113 -16 q 29 151 29 76 q 98 303 29 248 q 297 364 167 357 l 293 416 q 275 500 289 481 q 228 518 260 518 q 214 516 221 518 q 200 511 206 514 q 201 507 201 509 q 205 490 205 495 q 186 423 205 446 q 129 400 167 400 q 77 421 98 400 q 57 475 57 442 q 105 561 57 527 q 231 595 153 595 q 385 541 334 595 q 439 374 436 486 l 444 153 q 444 151 444 152 q 486 69 446 70 q 493 72 490 70 q 501 76 497 73 l 522 22 q 476 -6 503 4 q 422 -17 450 -17 q 362 1 385 -17 q 322 60 339 18 m 302 286 q 207 248 241 282 q 174 153 174 213 q 189 97 174 117 q 232 77 205 77 q 286 107 268 77 q 304 197 304 137 l 304 210 l 302 286 m 394 782 l 182 671 l 120 671 l 305 861 q 355 904 334 891 q 397 917 376 917 q 441 900 424 917 q 458 856 458 883 q 445 818 458 833 q 394 782 432 802 z "},"â":{"ha":521,"x_min":29,"x_max":522,"o":"m 322 60 q 264 3 300 22 q 180 -16 228 -16 q 71 30 113 -16 q 29 151 29 76 q 98 303 29 248 q 297 364 167 357 l 293 416 q 275 500 289 481 q 228 518 260 518 q 214 516 221 518 q 200 511 206 514 q 201 507 201 509 q 205 490 205 495 q 186 423 205 446 q 129 400 167 400 q 77 421 98 400 q 57 475 57 442 q 105 561 57 527 q 231 595 153 595 q 385 541 334 595 q 439 374 436 486 l 444 153 q 444 151 444 152 q 486 69 446 70 q 493 72 490 70 q 501 76 497 73 l 522 22 q 476 -6 503 4 q 422 -17 450 -17 q 362 1 385 -17 q 322 60 339 18 m 302 286 q 207 248 241 282 q 174 153 174 213 q 189 97 174 117 q 232 77 205 77 q 286 107 268 77 q 304 197 304 137 l 304 210 l 302 286 m 202 907 l 302 907 l 455 671 l 398 671 l 252 791 l 106 671 l 50 671 l 202 907 z "},"ã":{"ha":521,"x_min":29,"x_max":522,"o":"m 322 60 q 264 3 300 22 q 180 -16 228 -16 q 71 30 113 -16 q 29 151 29 76 q 98 303 29 248 q 297 364 167 357 l 293 416 q 275 500 289 481 q 228 518 260 518 q 214 516 221 518 q 200 511 206 514 q 201 507 201 509 q 205 490 205 495 q 186 423 205 446 q 129 400 167 400 q 77 421 98 400 q 57 475 57 442 q 105 561 57 527 q 231 595 153 595 q 385 541 334 595 q 439 374 436 486 l 444 153 q 444 151 444 152 q 486 69 446 70 q 493 72 490 70 q 501 76 497 73 l 522 22 q 476 -6 503 4 q 422 -17 450 -17 q 362 1 385 -17 q 322 60 339 18 m 302 286 q 207 248 241 282 q 174 153 174 213 q 189 97 174 117 q 232 77 205 77 q 286 107 268 77 q 304 197 304 137 l 304 210 l 302 286 m 404 889 l 448 889 q 402 765 439 809 q 309 721 366 721 q 274 726 298 721 q 271 726 271 726 l 199 746 q 180 750 190 749 q 161 751 170 751 q 125 737 140 751 q 100 692 111 723 l 55 692 q 102 817 66 776 q 198 859 138 859 q 221 857 211 859 q 241 852 232 856 l 315 835 q 328 832 321 833 q 341 831 335 831 q 378 844 363 831 q 404 889 393 858 z "},"ä":{"ha":521,"x_min":29,"x_max":522,"o":"m 322 60 q 264 3 300 22 q 180 -16 228 -16 q 71 30 113 -16 q 29 151 29 76 q 98 303 29 248 q 297 364 167 357 l 293 416 q 275 500 289 481 q 228 518 260 518 q 214 516 221 518 q 200 511 206 514 q 201 507 201 509 q 205 490 205 495 q 186 423 205 446 q 129 400 167 400 q 77 421 98 400 q 57 475 57 442 q 105 561 57 527 q 231 595 153 595 q 385 541 334 595 q 439 374 436 486 l 444 153 q 444 151 444 152 q 486 69 446 70 q 493 72 490 70 q 501 76 497 73 l 522 22 q 476 -6 503 4 q 422 -17 450 -17 q 362 1 385 -17 q 322 60 339 18 m 302 286 q 207 248 241 282 q 174 153 174 213 q 189 97 174 117 q 232 77 205 77 q 286 107 268 77 q 304 197 304 137 l 304 210 l 302 286 m 129 863 q 186 839 162 863 q 210 782 210 815 q 187 722 210 745 q 129 699 164 699 q 71 723 94 699 q 47 782 47 747 q 71 839 47 814 q 129 863 96 863 m 376 863 q 433 839 409 863 q 456 782 456 815 q 434 722 456 745 q 376 699 411 699 q 317 723 341 699 q 294 782 294 747 q 318 839 294 814 q 376 863 342 863 z "},"å":{"ha":521,"x_min":29,"x_max":522,"o":"m 302 286 q 207 248 241 282 q 174 153 174 213 q 189 97 174 117 q 232 77 205 77 q 286 107 268 77 q 304 197 304 137 l 304 210 l 302 286 m 322 60 q 263 3 299 22 q 180 -17 227 -17 q 71 30 113 -17 q 29 151 29 76 q 98 303 29 248 q 297 364 167 357 l 293 416 q 275 500 289 481 q 228 518 260 518 q 214 516 221 518 q 200 511 206 514 q 201 507 201 509 q 205 490 205 495 q 186 423 205 446 q 129 400 167 400 q 77 421 98 400 q 57 475 57 442 q 105 561 57 527 q 231 595 153 595 q 385 541 334 595 q 439 374 436 486 l 444 153 q 444 151 444 152 q 486 69 446 70 q 493 72 490 70 q 501 76 497 73 l 522 22 q 476 -6 503 4 q 422 -17 450 -17 q 362 1 385 -17 q 322 60 339 18 m 240 985 q 361 935 312 985 q 411 814 411 886 q 361 692 411 742 q 240 643 312 643 q 119 692 168 643 q 69 814 69 742 q 119 935 69 886 q 240 985 168 985 m 240 905 q 175 879 201 905 q 149 814 149 852 q 175 749 149 775 q 240 722 201 722 q 305 749 279 722 q 332 814 332 775 q 305 879 332 852 q 240 905 278 905 z "},"æ":{"ha":749,"x_min":29,"x_max":717,"o":"m 302 286 q 207 248 241 282 q 174 153 174 213 q 189 97 174 117 q 232 77 205 77 q 286 107 268 77 q 304 197 304 137 l 304 210 l 302 286 m 717 117 q 629 18 680 52 q 519 -17 578 -17 q 417 5 460 -17 q 340 74 373 27 q 267 5 305 26 q 180 -17 229 -17 q 71 30 113 -17 q 29 151 29 76 q 98 303 29 248 q 297 364 167 357 l 293 416 q 275 500 289 481 q 228 518 260 518 q 214 516 221 518 q 200 511 206 514 q 201 507 201 509 q 205 490 205 495 q 186 423 205 446 q 129 400 167 400 q 77 421 98 400 q 57 475 57 442 q 105 561 57 527 q 231 595 153 595 q 315 582 278 595 q 378 546 353 570 q 439 583 407 571 q 511 595 471 595 q 659 516 604 595 q 714 304 714 438 l 714 290 l 447 290 l 447 278 l 447 258 q 474 130 447 175 q 551 85 501 85 q 604 103 578 85 q 660 163 630 122 l 717 117 m 447 371 l 572 371 q 557 488 571 456 q 511 521 543 521 q 467 490 481 521 q 447 371 453 460 z "},"ç":{"ha":467,"x_min":32,"x_max":461,"o":"m 461 86 q 372 10 425 37 q 258 -17 319 -17 q 93 60 154 -17 q 32 271 32 138 q 100 507 32 419 q 285 595 169 595 q 392 563 351 595 q 433 484 433 532 q 412 421 433 444 q 355 399 391 399 q 305 420 323 399 q 286 479 286 441 q 288 497 286 488 q 292 518 289 507 q 288 519 290 518 q 275 521 278 521 q 213 468 233 521 q 192 309 192 414 q 219 142 192 197 q 302 87 247 87 q 358 101 332 87 q 412 146 384 115 l 461 86 m 216 0 l 263 0 l 263 -76 q 286 -74 275 -75 q 308 -72 297 -73 q 400 -103 366 -72 q 434 -187 434 -134 q 393 -277 434 -244 q 281 -310 353 -310 q 179 -295 233 -310 q 73 -252 126 -280 l 98 -195 q 186 -232 147 -220 q 260 -244 225 -244 q 310 -230 294 -244 q 326 -184 326 -215 q 308 -144 326 -159 q 258 -129 290 -129 q 233 -132 252 -130 q 216 -134 222 -134 l 216 0 z "},"è":{"ha":492,"x_min":32,"x_max":460,"o":"m 460 117 q 373 18 424 52 q 262 -17 321 -17 q 93 64 155 -17 q 32 289 32 145 q 93 512 32 429 q 256 595 153 595 q 404 516 349 595 q 458 304 458 438 l 458 290 l 192 290 q 191 277 191 284 q 191 258 191 270 q 217 130 191 175 q 294 85 244 85 q 348 104 321 85 q 404 163 375 123 l 460 117 m 191 371 l 317 371 q 302 488 315 456 q 256 521 288 521 q 211 490 225 521 q 191 371 196 458 m 206 861 l 391 671 l 330 671 l 117 782 q 66 818 79 802 q 54 856 54 833 q 71 900 54 883 q 115 917 87 917 q 156 904 135 917 q 206 861 178 891 z "},"é":{"ha":492,"x_min":32,"x_max":465,"o":"m 460 117 q 373 18 424 52 q 262 -17 321 -17 q 93 64 155 -17 q 32 289 32 145 q 93 512 32 429 q 256 595 153 595 q 404 516 349 595 q 458 304 458 438 l 458 290 l 192 290 q 191 277 191 284 q 191 258 191 270 q 217 130 191 175 q 294 85 244 85 q 348 104 321 85 q 404 163 375 123 l 460 117 m 191 371 l 317 371 q 302 488 315 456 q 256 521 288 521 q 211 490 225 521 q 191 371 196 458 m 401 782 l 189 671 l 127 671 l 312 861 q 362 904 340 891 q 404 917 383 917 q 448 900 431 917 q 465 856 465 883 q 452 818 465 833 q 401 782 439 802 z "},"ê":{"ha":492,"x_min":32,"x_max":462,"o":"m 460 117 q 373 18 424 52 q 262 -17 321 -17 q 93 64 155 -17 q 32 289 32 145 q 93 512 32 429 q 256 595 153 595 q 404 516 349 595 q 458 304 458 438 l 458 290 l 192 290 q 191 277 191 284 q 191 258 191 270 q 217 130 191 175 q 294 85 244 85 q 348 104 321 85 q 404 163 375 123 l 460 117 m 191 371 l 317 371 q 302 488 315 456 q 256 521 288 521 q 211 490 225 521 q 191 371 196 458 m 209 907 l 309 907 l 462 671 l 405 671 l 259 791 l 113 671 l 56 671 l 209 907 z "},"ë":{"ha":492,"x_min":32,"x_max":463,"o":"m 460 117 q 373 18 424 52 q 262 -17 321 -17 q 93 64 155 -17 q 32 289 32 145 q 93 512 32 429 q 256 595 153 595 q 404 516 349 595 q 458 304 458 438 l 458 290 l 192 290 q 191 277 191 284 q 191 258 191 270 q 217 130 191 175 q 294 85 244 85 q 348 104 321 85 q 404 163 375 123 l 460 117 m 191 371 l 317 371 q 302 488 315 456 q 256 521 288 521 q 211 490 225 521 q 191 371 196 458 m 136 863 q 193 839 169 863 q 216 782 216 815 q 194 722 216 745 q 136 699 171 699 q 77 723 101 699 q 54 782 54 747 q 78 839 54 814 q 136 863 102 863 m 382 863 q 439 839 416 863 q 463 782 463 815 q 440 722 463 745 q 382 699 418 699 q 324 723 348 699 q 300 782 300 747 q 325 839 300 814 q 382 863 349 863 z "},"ì":{"ha":313,"x_min":-48,"x_max":290,"o":"m 232 147 q 235 103 232 119 q 243 79 237 87 q 254 69 247 75 q 273 36 273 54 l 273 0 l 43 0 l 43 36 q 62 69 43 54 q 73 79 70 75 q 82 101 80 87 q 85 147 85 115 l 85 432 q 82 477 85 464 q 73 499 80 491 q 62 509 71 502 q 43 543 43 525 l 43 579 l 232 582 l 232 147 m 104 861 l 290 671 l 228 671 l 16 782 q -35 818 -22 802 q -48 856 -48 833 q -31 900 -48 883 q 13 917 -14 917 q 55 904 33 917 q 104 861 76 891 z "},"í":{"ha":313,"x_min":25,"x_max":363,"o":"m 232 147 q 235 103 232 119 q 243 79 237 87 q 254 69 247 75 q 273 36 273 54 l 273 0 l 43 0 l 43 36 q 62 69 43 54 q 73 79 70 75 q 82 101 80 87 q 85 147 85 115 l 85 432 q 82 477 85 464 q 73 499 80 491 q 62 509 71 502 q 43 543 43 525 l 43 579 l 232 582 l 232 147 m 299 782 l 87 671 l 25 671 l 210 861 q 260 904 239 891 q 302 917 281 917 q 346 900 329 917 q 363 856 363 883 q 350 818 363 833 q 299 782 337 802 z "},"î":{"ha":313,"x_min":-45,"x_max":360,"o":"m 232 147 q 235 103 232 119 q 243 79 237 87 q 254 69 247 75 q 273 36 273 54 l 273 0 l 43 0 l 43 36 q 62 69 43 54 q 73 79 70 75 q 82 101 80 87 q 85 147 85 115 l 85 432 q 82 477 85 464 q 73 499 80 491 q 62 509 71 502 q 43 543 43 525 l 43 579 l 232 582 l 232 147 m 107 907 l 208 907 l 360 671 l 303 671 l 157 791 l 12 671 l -45 671 l 107 907 z "},"ï":{"ha":313,"x_min":-48,"x_max":361,"o":"m 232 147 q 235 103 232 119 q 243 79 237 87 q 254 69 247 75 q 273 36 273 54 l 273 0 l 43 0 l 43 36 q 62 69 43 54 q 73 79 70 75 q 82 101 80 87 q 85 147 85 115 l 85 432 q 82 477 85 464 q 73 499 80 491 q 62 509 71 502 q 43 543 43 525 l 43 579 l 232 582 l 232 147 m 34 863 q 91 839 67 863 q 115 782 115 815 q 92 722 115 745 q 34 699 69 699 q -24 723 -1 699 q -48 782 -48 747 q -24 839 -48 814 q 34 863 1 863 m 281 863 q 338 839 314 863 q 361 782 361 815 q 339 722 361 745 q 281 699 316 699 q 222 723 246 699 q 199 782 199 747 q 223 839 199 814 q 281 863 248 863 z "},"ð":{"ha":511,"x_min":32,"x_max":481,"o":"m 256 58 q 305 99 292 58 q 318 289 318 140 q 305 481 318 441 q 256 521 292 521 q 207 478 220 521 q 193 289 193 435 q 207 99 193 140 q 256 58 220 58 m 300 588 q 270 670 286 629 q 235 746 253 710 l 98 692 l 74 758 l 201 807 q 148 907 175 862 q 94 986 121 952 l 132 1010 q 211 933 173 973 q 292 842 249 894 l 429 895 l 456 829 l 338 783 q 446 567 411 679 q 481 322 481 454 q 422 72 481 160 q 256 -17 363 -17 q 93 66 153 -17 q 32 289 32 149 q 91 510 32 426 q 243 595 150 595 q 267 593 253 595 q 300 588 281 591 z "},"ñ":{"ha":579,"x_min":43,"x_max":541,"o":"m 232 443 l 232 147 q 235 103 232 119 q 243 79 237 87 q 254 69 247 75 q 273 36 273 54 l 273 0 l 43 0 l 43 36 q 62 69 43 54 q 73 79 70 75 q 82 101 80 87 q 85 147 85 115 l 85 432 q 82 477 85 464 q 73 499 80 491 q 62 509 71 502 q 43 543 43 525 l 43 579 l 232 582 l 232 522 q 292 574 259 557 q 364 591 324 591 q 466 547 434 591 q 498 408 498 503 l 498 147 q 501 103 498 119 q 510 79 504 87 q 522 69 513 75 q 541 36 541 54 l 541 0 l 310 0 l 310 36 q 329 69 310 54 q 340 79 337 75 q 349 100 347 87 q 351 147 351 114 l 351 396 q 340 470 351 452 q 298 488 329 488 q 263 476 281 488 q 232 443 245 465 m 442 889 l 487 889 q 441 765 477 809 q 348 721 404 721 q 313 726 336 721 q 309 726 310 726 l 238 746 q 218 750 229 749 q 199 751 208 751 q 164 737 178 751 q 138 692 149 723 l 94 692 q 141 817 105 776 q 237 859 176 859 q 260 857 250 859 q 280 852 271 856 l 353 835 q 367 832 360 833 q 380 831 374 831 q 416 844 401 831 q 442 889 431 858 z "},"ò":{"ha":511,"x_min":32,"x_max":479,"o":"m 256 595 q 419 512 358 595 q 479 289 479 429 q 419 65 479 148 q 256 -17 359 -17 q 93 66 153 -17 q 32 289 32 149 q 93 512 32 429 q 256 595 153 595 m 256 521 q 207 478 220 521 q 193 289 193 435 q 207 99 193 140 q 256 58 220 58 q 305 99 292 58 q 318 289 318 140 q 305 481 318 441 q 256 521 292 521 m 203 861 l 389 671 l 327 671 l 115 782 q 64 818 77 802 q 51 856 51 833 q 68 900 51 883 q 112 917 85 917 q 154 904 132 917 q 203 861 175 891 z "},"ó":{"ha":511,"x_min":32,"x_max":479,"o":"m 256 595 q 419 512 358 595 q 479 289 479 429 q 419 65 479 148 q 256 -17 359 -17 q 93 66 153 -17 q 32 289 32 149 q 93 512 32 429 q 256 595 153 595 m 256 521 q 207 478 220 521 q 193 289 193 435 q 207 99 193 140 q 256 58 220 58 q 305 99 292 58 q 318 289 318 140 q 305 481 318 441 q 256 521 292 521 m 398 782 l 186 671 l 124 671 l 309 861 q 359 904 338 891 q 401 917 380 917 q 445 900 428 917 q 462 856 462 883 q 449 818 462 833 q 398 782 436 802 z "},"ô":{"ha":511,"x_min":32,"x_max":479,"o":"m 256 595 q 419 512 358 595 q 479 289 479 429 q 419 65 479 148 q 256 -17 359 -17 q 93 66 153 -17 q 32 289 32 149 q 93 512 32 429 q 256 595 153 595 m 256 521 q 207 478 220 521 q 193 289 193 435 q 207 99 193 140 q 256 58 220 58 q 305 99 292 58 q 318 289 318 140 q 305 481 318 441 q 256 521 292 521 m 206 907 l 307 907 l 459 671 l 402 671 l 256 791 l 111 671 l 54 671 l 206 907 z "},"õ":{"ha":511,"x_min":32,"x_max":479,"o":"m 256 595 q 419 512 358 595 q 479 289 479 429 q 419 65 479 148 q 256 -17 359 -17 q 93 66 153 -17 q 32 289 32 149 q 93 512 32 429 q 256 595 153 595 m 256 521 q 207 478 220 521 q 193 289 193 435 q 207 99 193 140 q 256 58 220 58 q 305 99 292 58 q 318 289 318 140 q 305 481 318 441 q 256 521 292 521 m 408 889 l 452 889 q 406 765 443 809 q 313 721 370 721 q 278 726 302 721 q 275 726 275 726 l 203 746 q 184 750 194 749 q 165 751 174 751 q 129 737 144 751 q 104 692 115 723 l 59 692 q 106 817 71 776 q 202 859 142 859 q 225 857 215 859 q 245 852 236 856 l 319 835 q 332 832 326 833 q 345 831 339 831 q 382 844 367 831 q 408 889 397 858 z "},"ö":{"ha":511,"x_min":32,"x_max":479,"o":"m 256 595 q 419 512 358 595 q 479 289 479 429 q 419 65 479 148 q 256 -17 359 -17 q 93 66 153 -17 q 32 289 32 149 q 93 512 32 429 q 256 595 153 595 m 256 521 q 207 478 220 521 q 193 289 193 435 q 207 99 193 140 q 256 58 220 58 q 305 99 292 58 q 318 289 318 140 q 305 481 318 441 q 256 521 292 521 m 133 863 q 190 839 166 863 q 214 782 214 815 q 191 722 214 745 q 133 699 168 699 q 75 723 98 699 q 51 782 51 747 q 75 839 51 814 q 133 863 100 863 m 380 863 q 437 839 413 863 q 460 782 460 815 q 438 722 460 745 q 380 699 415 699 q 321 723 345 699 q 298 782 298 747 q 322 839 298 814 q 380 863 347 863 z "},"÷":{"ha":1157,"x_min":172,"x_max":985,"o":"m 579 765 q 645 737 618 765 q 672 671 672 709 q 645 606 672 633 q 579 579 618 579 q 513 606 540 579 q 486 671 486 632 q 514 737 486 709 q 579 765 541 765 m 985 471 l 985 358 l 172 358 l 172 471 l 985 471 m 579 249 q 645 221 618 249 q 672 155 672 194 q 645 91 672 117 q 579 64 618 64 q 513 90 540 64 q 486 155 486 117 q 514 221 486 194 q 579 249 541 249 z "},"ø":{"ha":511,"x_min":32,"x_max":479,"o":"m 119 35 q 54 145 76 81 q 32 289 32 209 q 93 512 32 429 q 256 595 153 595 q 301 590 280 595 q 340 578 321 586 l 366 643 l 432 643 l 393 542 q 457 438 435 503 q 479 289 479 372 q 419 65 479 148 q 256 -17 359 -17 q 212 -13 233 -17 q 171 0 191 -8 l 138 -86 l 71 -86 l 119 35 m 186 168 l 310 492 q 289 514 302 507 q 256 521 276 521 q 197 478 213 521 q 180 304 180 435 q 184 211 180 281 q 186 168 185 184 m 330 416 l 203 87 q 223 65 211 73 q 256 58 236 58 q 315 101 299 58 q 332 279 332 144 q 331 343 332 298 q 330 416 330 389 z "},"ù":{"ha":574,"x_min":39,"x_max":536,"o":"m 347 136 l 347 432 q 344 476 347 460 q 334 499 341 491 q 324 508 331 503 q 306 543 306 525 l 306 579 l 494 583 l 494 147 q 497 103 494 119 q 506 79 500 87 q 517 69 509 75 q 536 36 536 54 l 536 0 l 347 -3 l 347 57 q 288 5 320 22 q 215 -12 255 -12 q 112 32 144 -12 q 79 171 79 75 l 79 432 q 77 478 79 464 q 68 499 74 492 q 58 508 64 503 q 39 543 39 525 l 39 579 l 228 583 l 228 182 q 238 109 228 127 q 277 90 249 90 q 315 102 296 90 q 347 136 333 114 m 235 861 l 420 671 l 359 671 l 146 782 q 96 818 109 802 q 83 856 83 833 q 100 900 83 883 q 144 917 117 917 q 185 904 164 917 q 235 861 207 891 z "},"ú":{"ha":574,"x_min":39,"x_max":536,"o":"m 347 136 l 347 432 q 344 476 347 460 q 334 499 341 491 q 324 508 331 503 q 306 543 306 525 l 306 579 l 494 583 l 494 147 q 497 103 494 119 q 506 79 500 87 q 517 69 509 75 q 536 36 536 54 l 536 0 l 347 -3 l 347 57 q 288 5 320 22 q 215 -12 255 -12 q 112 32 144 -12 q 79 171 79 75 l 79 432 q 77 478 79 464 q 68 499 74 492 q 58 508 64 503 q 39 543 39 525 l 39 579 l 228 583 l 228 182 q 238 109 228 127 q 277 90 249 90 q 315 102 296 90 q 347 136 333 114 m 430 782 l 218 671 l 156 671 l 341 861 q 391 904 370 891 q 433 917 412 917 q 477 900 460 917 q 494 856 494 883 q 481 818 494 833 q 430 782 468 802 z "},"û":{"ha":574,"x_min":39,"x_max":536,"o":"m 347 136 l 347 432 q 344 476 347 460 q 334 499 341 491 q 324 508 331 503 q 306 543 306 525 l 306 579 l 494 583 l 494 147 q 497 103 494 119 q 506 79 500 87 q 517 69 509 75 q 536 36 536 54 l 536 0 l 347 -3 l 347 57 q 288 5 320 22 q 215 -12 255 -12 q 112 32 144 -12 q 79 171 79 75 l 79 432 q 77 478 79 464 q 68 499 74 492 q 58 508 64 503 q 39 543 39 525 l 39 579 l 228 583 l 228 182 q 238 109 228 127 q 277 90 249 90 q 315 102 296 90 q 347 136 333 114 m 238 907 l 338 907 l 491 671 l 434 671 l 288 791 l 142 671 l 85 671 l 238 907 z "},"ü":{"ha":574,"x_min":39,"x_max":536,"o":"m 347 136 l 347 432 q 344 476 347 460 q 334 499 341 491 q 324 508 331 503 q 306 543 306 525 l 306 579 l 494 583 l 494 147 q 497 103 494 119 q 506 79 500 87 q 517 69 509 75 q 536 36 536 54 l 536 0 l 347 -3 l 347 57 q 288 5 320 22 q 215 -12 255 -12 q 112 32 144 -12 q 79 171 79 75 l 79 432 q 77 478 79 464 q 68 499 74 492 q 58 508 64 503 q 39 543 39 525 l 39 579 l 228 583 l 228 182 q 238 109 228 127 q 277 90 249 90 q 315 102 296 90 q 347 136 333 114 m 165 863 q 222 839 198 863 q 245 782 245 815 q 223 722 245 745 q 165 699 200 699 q 106 723 130 699 q 83 782 83 747 q 107 839 83 814 q 165 863 132 863 m 412 863 q 469 839 445 863 q 492 782 492 815 q 470 722 492 745 q 412 699 447 699 q 353 723 377 699 q 330 782 330 747 q 354 839 330 814 q 412 863 378 863 z "},"ý":{"ha":472,"x_min":-12,"x_max":486,"o":"m 267 3 q 175 -194 215 -146 q 77 -241 135 -241 q 12 -221 35 -241 q -12 -164 -12 -200 q 8 -108 -12 -130 q 58 -86 28 -86 q 96 -96 79 -86 q 122 -126 112 -106 q 139 -107 132 -119 q 151 -78 146 -96 l 187 32 l 58 454 q 58 457 58 456 q 25 505 46 494 q 19 509 23 507 q -7 543 -7 522 l -7 579 l 248 579 l 248 543 q 227 509 248 526 q 207 479 207 493 q 207 472 207 474 q 208 467 208 469 l 273 249 l 342 467 q 343 472 342 469 q 343 479 343 474 q 324 509 343 493 q 304 543 304 526 l 304 579 l 486 579 l 486 543 q 461 509 486 522 q 454 505 456 507 q 424 463 434 494 q 420 454 422 457 l 267 3 m 378 782 l 166 671 l 104 671 l 290 861 q 339 904 318 891 q 381 917 361 917 q 425 900 408 917 q 442 856 442 883 q 429 818 442 833 q 378 782 416 802 z "},"þ":{"ha":566,"x_min":39,"x_max":529,"o":"m 228 464 l 228 113 q 254 93 240 99 q 282 86 267 86 q 347 136 326 86 q 368 288 368 186 q 347 439 368 389 q 282 489 326 489 q 254 483 267 489 q 228 464 241 477 m 228 -94 q 230 -139 228 -123 q 239 -162 233 -154 q 250 -172 242 -166 q 268 -205 268 -187 l 268 -241 l 39 -241 l 39 -205 q 58 -172 39 -187 q 68 -163 64 -166 q 77 -141 74 -156 q 79 -94 79 -127 l 79 852 q 77 900 79 885 q 68 920 74 914 q 58 930 65 924 q 39 964 39 946 l 39 1000 l 228 1003 l 228 536 q 277 575 248 562 q 342 589 307 589 q 476 505 424 589 q 529 288 529 422 q 475 67 529 148 q 330 -14 422 -14 q 281 -5 305 -14 q 228 21 256 3 l 228 -94 z "},"ÿ":{"ha":472,"x_min":-12,"x_max":486,"o":"m 267 3 q 175 -194 215 -146 q 77 -241 135 -241 q 12 -221 35 -241 q -12 -164 -12 -200 q 8 -108 -12 -130 q 58 -86 28 -86 q 96 -96 79 -86 q 122 -126 112 -106 q 139 -107 132 -119 q 151 -78 146 -96 l 187 32 l 58 454 q 58 457 58 456 q 25 505 46 494 q 19 509 23 507 q -7 543 -7 522 l -7 579 l 248 579 l 248 543 q 227 509 248 526 q 207 479 207 493 q 207 472 207 474 q 208 467 208 469 l 273 249 l 342 467 q 343 472 342 469 q 343 479 343 474 q 324 509 343 493 q 304 543 304 526 l 304 579 l 486 579 l 486 543 q 461 509 486 522 q 454 505 456 507 q 424 463 434 494 q 420 454 422 457 l 267 3 m 113 863 q 170 839 146 863 q 194 782 194 815 q 171 722 194 745 q 113 699 149 699 q 55 723 79 699 q 31 782 31 747 q 56 839 31 814 q 113 863 80 863 m 360 863 q 417 839 393 863 q 441 782 441 815 q 418 722 441 745 q 360 699 395 699 q 302 723 326 699 q 278 782 278 747 q 302 839 278 814 q 360 863 327 863 z "},"ı":{"ha":313,"x_min":43,"x_max":273,"o":"m 232 147 q 235 103 232 119 q 243 79 237 87 q 254 69 247 75 q 273 36 273 54 l 273 0 l 43 0 l 43 36 q 62 69 43 54 q 73 79 70 75 q 82 101 80 87 q 85 147 85 115 l 85 432 q 82 477 85 464 q 73 499 80 491 q 62 509 71 502 q 43 543 43 525 l 43 579 l 232 582 l 232 147 z "},"Œ":{"ha":1042,"x_min":39,"x_max":1003,"o":"m 604 0 q 485 -6 559 0 q 379 -12 410 -12 q 130 125 221 -12 q 39 501 39 262 q 130 878 39 741 q 379 1015 221 1015 q 480 1009 406 1015 q 604 1003 555 1003 l 791 1003 q 886 1007 844 1003 q 962 1019 928 1011 l 962 790 l 921 790 q 876 828 890 790 q 857 867 867 853 q 816 903 839 893 q 726 913 793 913 l 663 913 l 663 559 l 704 559 q 757 569 739 559 q 786 603 774 578 q 791 617 789 608 q 831 644 801 644 l 861 644 l 861 385 l 831 385 q 791 412 801 385 q 786 427 788 422 q 758 460 776 450 q 704 469 740 469 l 663 469 l 663 90 l 725 90 q 839 102 807 90 q 893 146 871 115 q 917 208 906 165 q 949 250 928 250 l 1003 250 l 1003 0 l 604 0 m 496 218 l 496 785 q 467 894 496 859 q 379 929 439 929 q 260 837 294 929 q 225 501 225 745 q 260 166 225 258 q 379 74 294 74 q 467 109 439 74 q 496 218 496 144 z "},"œ":{"ha":778,"x_min":32,"x_max":747,"o":"m 260 58 q 313 100 298 58 q 328 289 328 142 q 313 480 328 439 q 260 521 299 521 q 208 479 222 521 q 193 275 193 437 q 208 98 193 138 q 260 58 222 58 m 747 117 q 658 17 711 50 q 538 -17 606 -17 q 465 -2 499 -17 q 397 43 431 12 q 333 -2 368 14 q 256 -17 298 -17 q 93 66 153 -17 q 32 289 32 149 q 93 512 32 429 q 256 595 153 595 q 334 579 297 595 q 399 534 370 564 q 463 580 428 565 q 542 595 498 595 q 690 516 635 595 q 745 304 745 438 l 745 290 l 479 290 q 478 277 479 284 q 478 258 478 270 q 505 130 478 175 q 582 85 532 85 q 635 103 609 85 q 690 163 661 122 l 747 117 m 478 371 l 603 371 q 588 488 602 456 q 542 521 574 521 q 497 490 511 521 q 478 371 484 460 z "},"Š":{"ha":624,"x_min":66,"x_max":582,"o":"m 69 -9 l 69 301 l 102 301 q 152 253 142 301 q 165 205 158 224 q 228 105 193 136 q 317 74 263 74 q 404 114 372 74 q 436 225 436 155 q 408 328 436 282 q 302 433 380 374 q 265 462 290 443 q 127 582 170 532 q 82 663 97 619 q 66 757 66 706 q 134 944 66 869 q 301 1019 201 1019 q 370 1007 332 1019 q 416 994 408 994 q 444 1003 427 994 q 468 1011 461 1011 l 501 1011 l 501 757 l 472 757 q 426 801 440 757 q 416 829 420 819 q 370 905 397 881 q 304 929 343 929 q 236 899 262 929 q 210 821 210 869 q 235 737 210 775 q 338 639 260 699 q 378 608 351 629 q 511 494 469 539 q 564 404 546 456 q 582 286 582 351 q 507 71 582 159 q 329 -17 433 -17 q 227 1 281 -17 q 167 20 173 20 q 135 5 154 20 q 109 -9 116 -9 l 69 -9 m 111 1332 l 168 1332 l 313 1211 l 459 1332 l 516 1332 l 363 1096 l 263 1096 l 111 1332 z "},"š":{"ha":411,"x_min":3,"x_max":409,"o":"m 155 74 q 178 61 166 65 q 201 57 189 57 q 250 74 229 57 q 271 113 271 91 q 187 216 271 156 l 183 218 q 64 325 90 286 q 39 418 39 365 q 87 546 39 496 q 212 595 136 595 q 318 562 276 595 q 359 481 359 529 q 340 431 359 450 q 290 412 321 412 q 247 429 262 412 q 231 473 231 445 q 233 492 231 482 q 241 513 236 501 q 219 520 228 518 q 203 522 210 522 q 162 508 178 522 q 147 471 147 494 q 216 390 147 437 q 239 374 231 379 q 357 266 329 309 q 385 170 385 224 q 329 36 385 90 q 189 -17 273 -17 q 71 21 118 -17 q 24 115 24 60 q 44 173 24 151 q 98 195 65 195 q 149 175 130 195 q 168 125 168 156 q 165 101 168 114 q 155 74 162 89 m 3 907 l 60 907 l 206 786 l 352 907 l 409 907 l 256 671 l 156 671 l 3 907 z "},"Ÿ":{"ha":599,"x_min":-20,"x_max":611,"o":"m 389 489 l 389 187 q 393 117 389 136 q 408 89 397 97 q 425 77 414 84 q 450 36 450 60 l 450 0 l 160 0 l 160 36 q 185 77 160 60 q 201 89 195 84 q 217 117 212 97 q 221 187 221 136 l 221 472 l 56 854 q 52 864 54 857 q 7 925 33 909 q -15 944 -11 936 q -20 966 -20 952 l -20 1003 l 272 1003 l 272 966 q 247 924 272 945 q 222 880 222 903 q 225 860 222 870 q 232 839 227 850 l 338 597 l 436 846 q 444 867 441 859 q 446 882 446 876 q 420 924 446 905 q 395 966 395 943 l 395 1003 l 611 1003 l 611 966 q 583 922 611 944 q 543 872 555 901 l 389 489 m 177 1288 q 234 1264 210 1288 q 258 1207 258 1240 q 235 1147 258 1171 q 177 1124 212 1124 q 119 1148 142 1124 q 95 1207 95 1172 q 119 1264 95 1240 q 177 1288 144 1288 m 424 1288 q 481 1264 457 1288 q 505 1207 505 1240 q 482 1147 505 1171 q 424 1124 459 1124 q 366 1148 389 1124 q 342 1207 342 1172 q 366 1264 342 1240 q 424 1288 391 1288 z "},"Ž":{"ha":589,"x_min":21,"x_max":555,"o":"m 21 0 l 21 78 l 367 913 l 311 913 q 218 901 250 913 q 167 863 186 890 q 149 825 158 851 q 109 786 137 787 l 104 786 l 64 786 l 64 1019 q 120 1007 90 1010 q 197 1003 149 1003 l 218 1003 l 555 1003 l 555 949 l 197 90 l 283 90 q 391 106 353 90 q 454 161 429 122 q 473 204 464 176 q 515 244 488 244 l 555 244 l 555 0 l 21 0 m 92 1332 l 149 1332 l 295 1211 l 441 1332 l 498 1332 l 345 1096 l 245 1096 l 92 1332 z "},"ž":{"ha":463,"x_min":21,"x_max":435,"o":"m 21 0 l 21 62 l 245 504 l 215 504 q 147 495 168 504 q 113 460 126 486 q 104 436 109 452 q 71 408 98 408 l 36 408 l 36 579 l 422 579 l 422 542 l 191 81 l 216 81 q 304 93 277 81 q 350 136 332 105 q 361 164 355 145 q 397 200 372 200 l 431 200 l 431 0 l 21 0 m 30 907 l 87 907 l 233 786 l 378 907 l 435 907 l 283 671 l 182 671 l 30 907 z "},"ƒ":{"ha":579,"x_min":-31,"x_max":568,"o":"m 196 505 l 65 505 l 74 586 l 201 586 q 275 910 213 802 q 449 1018 336 1018 q 536 991 504 1018 q 568 920 568 965 q 548 865 568 886 q 494 844 528 844 q 449 861 466 844 q 432 904 432 877 q 435 923 432 913 q 443 946 437 933 l 441 946 q 388 897 406 946 q 364 732 370 848 l 355 586 l 500 586 l 492 505 l 354 505 l 338 197 q 265 -126 326 -20 q 90 -232 204 -232 q 2 -205 35 -232 q -31 -134 -31 -178 q -10 -79 -31 -100 q 45 -58 11 -58 q 89 -74 71 -58 q 106 -114 106 -90 q 103 -137 106 -126 q 96 -159 101 -149 l 97 -160 q 185 234 170 -160 q 186 260 186 252 l 196 505 z "},"ˆ":{"ha":694,"x_min":144,"x_max":550,"o":"m 297 907 l 397 907 l 550 671 l 493 671 l 347 791 l 201 671 l 144 671 l 297 907 z "},"ˇ":{"ha":694,"x_min":144,"x_max":550,"o":"m 144 907 l 201 907 l 347 786 l 493 907 l 550 907 l 397 671 l 297 671 l 144 907 z "},"˜":{"ha":694,"x_min":150,"x_max":543,"o":"m 498 889 l 543 889 q 497 765 534 809 q 404 721 460 721 q 369 726 393 721 q 366 726 366 726 l 294 746 q 275 750 285 749 q 256 751 264 751 q 220 737 235 751 q 195 692 205 723 l 150 692 q 197 817 161 776 q 293 859 233 859 q 316 857 306 859 q 336 852 327 856 l 410 835 q 423 832 416 833 q 436 831 430 831 q 473 844 458 831 q 498 889 488 858 z "},"–":{"ha":694,"x_min":0,"x_max":694,"o":"m 0 245 l 0 349 l 694 349 l 694 245 l 0 245 z "},"—":{"ha":1389,"x_min":0,"x_max":1389,"o":"m 0 245 l 0 349 l 1389 349 l 1389 245 l 0 245 z "},"‘":{"ha":289,"x_min":43,"x_max":260,"o":"m 260 981 q 181 882 208 928 q 151 796 155 836 q 220 766 198 789 q 241 699 241 743 q 215 630 241 658 q 150 603 189 603 q 72 635 101 603 q 43 721 43 667 q 86 858 43 783 q 214 1019 130 934 l 260 981 z "},"’":{"ha":289,"x_min":36,"x_max":253,"o":"m 36 642 q 113 738 86 692 q 143 826 140 785 q 77 855 100 831 q 54 918 54 878 q 79 991 54 964 q 144 1019 104 1019 q 224 986 195 1019 q 253 895 253 953 q 208 762 253 838 q 82 603 163 686 l 36 642 z "},"‚":{"ha":289,"x_min":28,"x_max":244,"o":"m 28 -186 q 104 -90 77 -136 q 134 -1 132 -43 q 68 27 91 4 q 46 90 46 51 q 71 163 46 136 q 136 191 95 191 q 216 158 187 191 q 244 66 244 125 q 200 -65 244 11 q 74 -225 156 -140 l 28 -186 z "},"“":{"ha":562,"x_min":43,"x_max":533,"o":"m 533 979 q 455 881 482 927 q 425 795 429 836 q 493 765 471 788 q 514 697 514 741 q 489 630 514 656 q 424 603 463 603 q 346 635 374 603 q 317 721 317 667 q 360 858 317 783 q 488 1018 403 932 l 533 979 m 260 979 q 181 881 208 927 q 151 795 155 835 q 220 765 198 788 q 241 697 241 741 q 215 630 241 656 q 150 603 189 603 q 72 635 101 603 q 43 721 43 667 q 86 858 43 783 q 214 1018 129 932 l 260 979 z "},"”":{"ha":562,"x_min":36,"x_max":525,"o":"m 36 642 q 113 738 86 692 q 143 826 140 785 q 77 855 100 831 q 54 918 54 878 q 79 991 54 964 q 144 1019 104 1019 q 224 986 195 1019 q 253 895 253 953 q 208 762 253 838 q 82 603 163 686 l 36 642 m 309 642 q 386 739 359 692 q 416 826 414 786 q 350 855 373 831 q 328 918 328 878 q 352 991 328 964 q 418 1019 377 1019 q 497 986 469 1019 q 525 895 525 954 q 480 762 525 838 q 354 603 436 686 l 309 642 z "},"„":{"ha":562,"x_min":28,"x_max":517,"o":"m 28 -186 q 104 -90 77 -136 q 134 -1 132 -43 q 68 27 91 4 q 46 90 46 51 q 71 163 46 136 q 136 191 95 191 q 216 158 187 191 q 244 66 244 125 q 200 -65 244 11 q 74 -225 156 -140 l 28 -186 m 300 -186 q 378 -89 351 -136 q 408 -1 405 -43 q 342 27 365 4 q 319 90 319 51 q 344 163 319 136 q 410 191 369 191 q 489 158 460 191 q 517 66 517 125 q 472 -65 517 11 q 346 -225 428 -140 l 300 -186 z "},"†":{"ha":599,"x_min":25,"x_max":574,"o":"m 323 705 q 420 738 365 712 q 494 764 475 764 q 552 742 530 764 q 574 685 574 720 q 555 628 574 648 q 503 607 536 607 q 416 635 472 607 q 323 669 361 664 l 323 663 q 341 536 323 595 q 393 429 359 477 q 342 158 359 305 q 325 -158 325 12 l 279 -158 q 260 149 278 4 q 205 428 241 294 q 256 537 239 478 q 273 663 273 596 l 273 671 q 180 636 236 665 q 97 607 123 607 q 44 628 64 607 q 25 685 25 649 q 47 741 25 718 q 102 764 70 764 q 183 738 127 764 q 275 705 239 711 l 275 721 q 245 858 275 785 q 215 945 215 930 q 238 999 215 979 q 298 1019 260 1019 q 360 999 338 1019 q 383 945 383 979 q 353 858 383 930 q 323 721 323 785 l 323 705 z "},"‡":{"ha":599,"x_min":28,"x_max":578,"o":"m 328 705 q 425 738 370 713 q 498 764 480 764 q 556 742 534 764 q 578 685 578 720 q 559 628 578 649 q 507 607 540 607 q 422 636 477 607 q 328 669 367 665 l 328 663 q 345 536 328 595 q 397 429 363 477 q 345 314 363 374 q 328 192 328 254 l 328 185 q 422 219 366 191 q 504 248 477 248 q 556 226 536 248 q 576 170 576 205 q 554 113 576 136 q 498 90 532 90 q 421 117 477 90 q 328 150 366 144 l 328 135 q 357 -3 328 70 q 387 -90 387 -76 q 365 -145 387 -124 q 304 -165 342 -165 q 242 -145 265 -165 q 220 -90 220 -125 q 250 -3 220 -76 q 279 135 279 70 l 279 150 q 184 117 239 144 q 111 90 130 90 q 54 113 76 90 q 32 171 32 135 q 51 227 32 207 q 103 248 70 248 q 188 218 133 248 q 279 185 243 189 l 279 192 q 261 316 279 256 q 208 428 243 376 q 260 538 243 479 q 278 664 278 598 l 278 671 q 181 635 237 664 q 100 607 125 607 q 47 628 67 607 q 28 685 28 650 q 50 741 28 719 q 104 764 71 764 q 182 738 127 764 q 278 706 238 712 l 278 721 q 248 858 278 785 q 218 945 218 930 q 241 999 218 979 q 302 1019 264 1019 q 365 999 342 1019 q 387 945 387 979 q 357 858 387 930 q 328 721 328 785 l 328 705 z "},"•":{"ha":819,"x_min":208,"x_max":610,"o":"m 208 517 q 267 659 208 600 q 410 717 326 717 q 551 658 492 717 q 610 517 610 600 q 550 375 610 434 q 408 315 491 315 q 267 374 325 315 q 208 517 208 433 z "},"…":{"ha":1389,"x_min":132,"x_max":1257,"o":"m 132 92 q 161 162 132 132 q 231 192 190 192 q 301 163 272 192 q 330 92 330 134 q 301 21 330 51 q 231 -8 271 -8 q 162 22 191 -8 q 132 92 132 52 m 595 92 q 624 162 595 132 q 693 192 652 192 q 764 163 734 192 q 793 92 793 134 q 763 21 793 51 q 693 -8 734 -8 q 624 22 654 -8 q 595 92 595 52 m 1059 92 q 1087 162 1059 132 q 1157 192 1116 192 q 1227 163 1198 192 q 1257 92 1257 134 q 1227 21 1257 51 q 1157 -8 1198 -8 q 1088 22 1118 -8 q 1059 92 1059 52 z "},"‰":{"ha":1344,"x_min":22,"x_max":1321,"o":"m 606 987 l 689 987 l 304 -16 l 221 -16 l 606 987 m 399 717 q 346 522 399 597 q 211 447 294 447 q 75 522 128 447 q 22 717 22 597 q 75 910 22 836 q 211 985 128 985 q 347 910 294 985 q 399 717 399 836 m 272 675 l 272 760 q 258 875 272 841 q 211 909 244 909 q 163 874 178 909 q 149 760 149 838 l 149 675 q 163 561 149 596 q 211 525 178 525 q 258 559 244 525 q 272 675 272 594 m 886 254 q 833 60 886 135 q 697 -16 780 -16 q 562 59 614 -16 q 510 254 510 134 q 562 448 510 374 q 697 522 614 522 q 833 448 781 522 q 886 254 886 373 m 760 211 l 760 294 q 745 411 760 376 q 699 446 731 446 q 651 410 666 446 q 636 294 636 374 l 636 211 q 651 97 636 132 q 699 61 666 61 q 745 96 731 61 q 760 211 760 130 m 1194 211 l 1194 294 q 1180 410 1194 375 q 1132 446 1165 446 q 1085 410 1100 446 q 1071 294 1071 374 l 1071 211 q 1085 96 1071 132 q 1132 61 1100 61 q 1180 96 1165 61 q 1194 211 1194 131 m 1321 254 q 1268 60 1321 135 q 1132 -16 1215 -16 q 996 60 1049 -16 q 943 254 943 135 q 996 448 943 373 q 1132 522 1048 522 q 1268 448 1215 522 q 1321 254 1321 373 z "},"‹":{"ha":328,"x_min":32,"x_max":281,"o":"m 195 289 q 259 155 237 209 q 281 78 281 100 q 277 68 280 71 q 268 65 275 66 q 183 145 255 65 q 32 289 111 226 q 183 434 111 353 q 267 514 255 514 q 277 511 274 514 q 281 501 280 509 q 258 423 281 478 q 195 289 236 368 z "},"›":{"ha":328,"x_min":47,"x_max":296,"o":"m 135 289 q 71 421 94 364 q 47 498 47 478 q 50 511 47 508 q 61 514 52 513 q 144 434 73 514 q 296 289 216 353 q 145 145 217 226 q 60 65 73 65 q 50 68 53 65 q 47 81 47 72 q 71 157 47 101 q 135 289 94 213 z "},"€":{"ha":446,"x_min":21,"x_max":423,"o":"m 21 307 l 66 307 q 90 384 73 349 q 131 443 106 418 q 186 481 155 468 q 254 494 217 494 q 316 484 288 494 q 365 455 345 473 q 399 411 386 436 q 416 355 412 385 l 353 355 q 320 416 345 394 q 253 439 295 439 q 173 404 202 439 q 134 307 143 368 l 271 307 l 271 268 l 130 268 q 129 254 129 261 q 129 241 129 248 q 129 227 129 233 q 130 213 129 220 l 271 213 l 271 174 l 134 174 q 177 78 145 111 q 258 45 209 45 q 331 76 305 45 q 362 153 357 106 l 423 153 q 410 90 422 119 q 377 38 398 60 q 326 3 355 16 q 259 -10 296 -10 q 191 2 222 -10 q 134 38 159 14 q 91 96 109 62 q 66 174 73 130 l 21 174 l 21 213 l 61 213 q 60 227 60 220 q 60 241 60 233 q 60 254 60 248 q 61 268 60 261 l 21 268 l 21 307 z "},"™":{"ha":1141,"x_min":158,"x_max":970,"o":"m 469 982 l 476 854 l 456 854 q 429 933 450 909 q 366 958 407 958 l 358 958 l 358 672 q 365 647 358 656 q 385 636 372 637 l 406 633 l 406 614 l 229 614 l 229 633 l 251 636 q 270 647 264 637 q 277 672 277 656 l 277 958 l 267 958 q 205 933 227 958 q 178 854 183 907 l 158 854 l 165 982 l 469 982 m 657 982 l 749 724 l 842 982 l 970 982 l 970 964 l 951 962 q 931 951 938 960 q 924 926 924 942 l 924 672 q 931 647 924 656 q 951 636 938 638 l 970 633 l 970 614 l 803 614 l 803 633 l 823 636 q 843 647 837 637 q 850 672 850 656 l 850 926 l 739 612 l 721 612 l 606 930 l 606 672 q 612 646 606 656 q 632 636 619 637 l 656 633 l 656 614 l 522 614 l 522 633 l 545 636 q 565 646 558 637 q 572 671 572 655 l 572 924 q 565 949 572 939 q 545 960 557 958 l 522 961 l 522 982 l 657 982 z "}}}
